<svg xmlns="http://www.w3.org/2000/svg" width="800" height="600" viewBox="0 0 800 600">
  <defs>
    <pattern id="bamboo-pattern" x="0" y="0" width="40" height="40" patternUnits="userSpaceOnUse">
      <!-- 竹节横纹 -->
      <rect x="0" y="18" width="40" height="4" fill="#2c7744" opacity="0.2" />
      <!-- 竹节竖纹 -->
      <rect x="18" y="0" width="4" height="40" fill="#2c7744" opacity="0.2" />
    </pattern>
  </defs>
  
  <!-- 外框 -->
  <rect x="0" y="0" width="800" height="600" fill="none" stroke="#2c7744" stroke-width="20" />
  
  <!-- 内填充 -->
  <rect x="10" y="10" width="780" height="580" fill="url(#bamboo-pattern)" stroke="none" />
  
  <!-- 竹节边框装饰 -->
  <!-- 顶部竹节 -->
  <rect x="50" y="10" width="100" height="10" rx="5" fill="#2c7744" opacity="0.8" />
  <rect x="200" y="10" width="80" height="10" rx="5" fill="#2c7744" opacity="0.8" />
  <rect x="350" y="10" width="100" height="10" rx="5" fill="#2c7744" opacity="0.8" />
  <rect x="500" y="10" width="80" height="10" rx="5" fill="#2c7744" opacity="0.8" />
  <rect x="650" y="10" width="100" height="10" rx="5" fill="#2c7744" opacity="0.8" />
  
  <!-- 底部竹节 -->
  <rect x="50" y="580" width="100" height="10" rx="5" fill="#2c7744" opacity="0.8" />
  <rect x="200" y="580" width="80" height="10" rx="5" fill="#2c7744" opacity="0.8" />
  <rect x="350" y="580" width="100" height="10" rx="5" fill="#2c7744" opacity="0.8" />
  <rect x="500" y="580" width="80" height="10" rx="5" fill="#2c7744" opacity="0.8" />
  <rect x="650" y="580" width="100" height="10" rx="5" fill="#2c7744" opacity="0.8" />
  
  <!-- 左侧竹节 -->
  <rect x="10" y="50" width="10" height="100" rx="5" fill="#2c7744" opacity="0.8" />
  <rect x="10" y="200" width="10" height="80" rx="5" fill="#2c7744" opacity="0.8" />
  <rect x="10" y="350" width="10" height="100" rx="5" fill="#2c7744" opacity="0.8" />
  <rect x="10" y="500" width="10" height="50" rx="5" fill="#2c7744" opacity="0.8" />
  
  <!-- 右侧竹节 -->
  <rect x="780" y="50" width="10" height="100" rx="5" fill="#2c7744" opacity="0.8" />
  <rect x="780" y="200" width="10" height="80" rx="5" fill="#2c7744" opacity="0.8" />
  <rect x="780" y="350" width="10" height="100" rx="5" fill="#2c7744" opacity="0.8" />
  <rect x="780" y="500" width="10" height="50" rx="5" fill="#2c7744" opacity="0.8" />
  
  <!-- 装饰角落 - 竹叶 -->
  <!-- 左上角 -->
  <path d="M30,30 Q60,10 80,40 Q70,50 50,45 Q40,60 20,50 Z" fill="#53a853" opacity="0.6" />
  
  <!-- 右上角 -->
  <path d="M770,30 Q740,10 720,40 Q730,50 750,45 Q760,60 780,50 Z" fill="#53a853" opacity="0.6" />
  
  <!-- 左下角 -->
  <path d="M30,570 Q60,590 80,560 Q70,550 50,555 Q40,540 20,550 Z" fill="#53a853" opacity="0.6" />
  
  <!-- 右下角 -->
  <path d="M770,570 Q740,590 720,560 Q730,550 750,555 Q760,540 780,550 Z" fill="#53a853" opacity="0.6" />
</svg> 