<svg xmlns="http://www.w3.org/2000/svg" width="800" height="600" viewBox="0 0 800 600">
  <defs>
    <linearGradient id="water-gradient" x1="0%" y1="0%" x2="100%" y2="100%">
      <stop offset="0%" stop-color="#a8d8ff" />
      <stop offset="100%" stop-color="#007bff" />
    </linearGradient>
    
    <pattern id="steam-pattern" x="0" y="0" width="60" height="60" patternUnits="userSpaceOnUse">
      <path d="M30,10 Q40,0 50,10 Q60,20 50,30 Q40,40 30,30 Q20,20 30,10 Z" fill="white" opacity="0.2" />
    </pattern>
  </defs>
  
  <!-- 外边框 - 水波纹渐变 -->
  <rect x="0" y="0" width="800" height="600" fill="none" stroke="url(#water-gradient)" stroke-width="20" />
  
  <!-- 内边框 - 蒸汽 -->
  <rect x="20" y="20" width="760" height="560" fill="none" stroke="url(#steam-pattern)" stroke-width="10" stroke-dasharray="5,5" />
  
  <!-- 水波纹装饰 - 上边 -->
  <path class="water-wave" d="M100,10 Q125,0 150,10 Q175,20 200,10 Q225,0 250,10 Q275,20 300,10 Q325,0 350,10 Q375,20 400,10 Q425,0 450,10 Q475,20 500,10 Q525,0 550,10 Q575,20 600,10 Q625,0 650,10 Q675,20 700,10" fill="none" stroke="#007bff" stroke-width="5" opacity="0.7" />
  
  <!-- 水波纹装饰 - 下边 -->
  <path class="water-wave" d="M100,590 Q125,580 150,590 Q175,600 200,590 Q225,580 250,590 Q275,600 300,590 Q325,580 350,590 Q375,600 400,590 Q425,580 450,590 Q475,600 500,590 Q525,580 550,590 Q575,600 600,590 Q625,580 650,590 Q675,600 700,590" fill="none" stroke="#007bff" stroke-width="5" opacity="0.7" />
  
  <!-- 温泉水波标志 - 四角 -->
  <!-- 左上 -->
  <circle cx="40" cy="40" r="25" fill="#a8d8ff" />
  <path d="M20,40 Q30,30 40,40 Q50,50 60,40" fill="none" stroke="white" stroke-width="3" opacity="0.8" />
  <path d="M25,45 Q35,35 45,45" fill="none" stroke="white" stroke-width="2" opacity="0.6" />
  
  <!-- 右上 -->
  <circle cx="760" cy="40" r="25" fill="#a8d8ff" />
  <path d="M740,40 Q750,30 760,40 Q770,50 780,40" fill="none" stroke="white" stroke-width="3" opacity="0.8" />
  <path d="M745,45 Q755,35 765,45" fill="none" stroke="white" stroke-width="2" opacity="0.6" />
  
  <!-- 左下 -->
  <circle cx="40" cy="560" r="25" fill="#a8d8ff" />
  <path d="M20,560 Q30,550 40,560 Q50,570 60,560" fill="none" stroke="white" stroke-width="3" opacity="0.8" />
  <path d="M25,565 Q35,555 45,565" fill="none" stroke="white" stroke-width="2" opacity="0.6" />
  
  <!-- 右下 -->
  <circle cx="760" cy="560" r="25" fill="#a8d8ff" />
  <path d="M740,560 Q750,550 760,560 Q770,570 780,560" fill="none" stroke="white" stroke-width="3" opacity="0.8" />
  <path d="M745,565 Q755,555 765,565" fill="none" stroke="white" stroke-width="2" opacity="0.6" />
  
  <!-- 蒸汽装饰 -->
  <path d="M400,15 Q410,5 420,15 Q430,25 420,35 Q410,45 400,35 Q390,25 400,15" fill="white" opacity="0.6">
    <animate attributeName="opacity" values="0.4;0.7;0.4" dur="4s" repeatCount="indefinite" />
  </path>
  
  <path d="M380,15 Q390,5 400,15 Q410,25 400,35 Q390,45 380,35 Q370,25 380,15" fill="white" opacity="0.4">
    <animate attributeName="opacity" values="0.2;0.5;0.2" dur="5s" repeatCount="indefinite" />
  </path>
  
  <path d="M420,15 Q430,5 440,15 Q450,25 440,35 Q430,45 420,35 Q410,25 420,15" fill="white" opacity="0.5">
    <animate attributeName="opacity" values="0.3;0.6;0.3" dur="4.5s" repeatCount="indefinite" />
  </path>
</svg> 