<svg xmlns="http://www.w3.org/2000/svg" width="800" height="600" viewBox="0 0 800 600">
  <defs>
    <pattern id="moon-pattern" x="0" y="0" width="100" height="100" patternUnits="userSpaceOnUse">
      <circle cx="50" cy="50" r="20" fill="#e3b23c" opacity="0.2" />
      <path d="M50 30 A20 20 0 0 1 70 50 A20 20 0 0 1 50 70 A15 15 0 0 0 65 50 A15 15 0 0 0 50 30Z" fill="#fff" opacity="0.4" />
    </pattern>
  </defs>
  
  <!-- 外边框 -->
  <rect x="0" y="0" width="800" height="600" fill="none" stroke="#e3b23c" stroke-width="20" />
  
  <!-- 装饰角落 -->
  <circle cx="40" cy="40" r="30" fill="#e3b23c" />
  <circle cx="760" cy="40" r="30" fill="#e3b23c" />
  <circle cx="40" cy="560" r="30" fill="#e3b23c" />
  <circle cx="760" cy="560" r="30" fill="#e3b23c" />
  
  <!-- 月亮图案 - 四角 -->
  <path d="M40 10 A30 30 0 0 1 70 40 A20 20 0 0 0 55 30 A20 20 0 0 0 40 10Z" fill="#fff" opacity="0.6" />
  <path d="M760 10 A30 30 0 0 0 730 40 A20 20 0 0 1 745 30 A20 20 0 0 1 760 10Z" fill="#fff" opacity="0.6" />
  <path d="M40 590 A30 30 0 0 0 70 560 A20 20 0 0 1 55 570 A20 20 0 0 1 40 590Z" fill="#fff" opacity="0.6" />
  <path d="M760 590 A30 30 0 0 1 730 560 A20 20 0 0 0 745 570 A20 20 0 0 0 760 590Z" fill="#fff" opacity="0.6" />
  
  <!-- 边框填充 -->
  <rect x="20" y="20" width="760" height="560" fill="none" stroke="url(#moon-pattern)" stroke-width="20" />
  
  <!-- 顶部月亮装饰 -->
  <circle cx="400" cy="30" r="20" fill="#e3b23c" />
  <path d="M400 10 A20 20 0 0 1 420 30 A15 15 0 0 0 410 20 A15 15 0 0 0 400 10Z" fill="#fff" opacity="0.6" />
  
  <!-- 底部月亮装饰 -->
  <circle cx="400" cy="570" r="20" fill="#e3b23c" />
  <path d="M400 550 A20 20 0 0 0 420 570 A15 15 0 0 1 410 560 A15 15 0 0 1 400 550Z" fill="#fff" opacity="0.6" />
</svg> 