<svg width="1920" height="1080" viewBox="0 0 1920 1080" fill="none" xmlns="http://www.w3.org/2000/svg" xmlns:xlink="http://www.w3.org/1999/xlink"><style>text{text-anchor:middle;dominant-baseline:middle; font-size:12px;}</style><path d="M32.7449 296.149L32.812 296.356L31.0172 296.806L30.3789 297.291L30.1101 298.262L29.419 299.352L28.9583 299.497L29.0158 301.077L28.8048 302.325L27.269 301.858L26.29 301.037L25.2678 300.552L24.135 300.512L23.228 299.881L20.8236 300.366L18.0306 299.727L16.49 299.682L14.9975 300.331L14.1769 301.474L13.8121 302.665L13.9705 303.287L15.6598 305.312L15.9573 305.873L15.7942 306.557L15.0215 307.033L14.0472 307.298L12.7371 307.431L11.2302 307.311L9.8335 306.155L9.41608 305.974L8.38422 306.985L8.20178 308.238L7.24207 310.149L6.33966 310.577L5.7879 311.12L5.33667 312.321L5.23108 313.168L6.42139 313.336L6.6134 313.971L6.6709 315.556L7.3476 315.852L8.88806 315.591L9.95837 314.726L10.8415 314.214L11.8587 314.245L12.8091 314.642L12.5547 317.203L12.9051 318.297L13.6633 319.414L14.9878 320.558L16.6964 320.942L17.8818 320.456L17.9778 319.512L17.6994 318.796L18.2512 318.244L19.1967 318.386L19.6384 318.668L20.3102 318.527L21.4381 319.013L22.3691 320.99L22.7195 322.372L23.4968 323.22L23.7367 323.971L23.2184 326.633L22.9016 327.68L22.609 328.011L21.2892 328.112L19.8159 329.844L19.1727 331.367L18.2177 331.61L17.6563 332.343L17.5939 332.9L18.1313 333.16L18.0546 334.379L17.2242 334.525L16.4325 333.885L15.343 334.335L14.5224 334.892L13.8266 335.7L13.6009 336.46L13.5049 337.697L12.9242 338.019L12.5067 338.858L11.8732 339.645L10.7022 339.914L10.4094 339.521L10.2752 338.629L10.8701 337.069L10.5102 336.053L10.1168 335.859L9.42566 336.261L6.72852 338.938L4.10809 341.73L3.32587 342.742L3.08112 344.615L2.41888 345.684L0.868683 346.974L0 347.854L0.31189 348.441L1.32938 348.512L2.86029 348.981L4.16101 349.838L4.31921 350.474L4.09369 350.943L3.30658 351.548L3.25861 351.928L4.20898 354.05L4.1897 355.711L3.29706 356.326L2.22198 355.38L1.45428 355.177L1.14209 355.703L1.5502 357.201L1.82858 357.581L2.7692 358.045L2.52438 358.642L1.84277 358.974L1.9101 359.469L3.18658 358.819L4.92389 358.708L5.61041 359.694L6.18127 359.937L6.57501 359.721L7.08368 358.921L7.76508 358.527L8.3938 358.616L9.05127 359.385L9.54559 362.554L9.65601 364.066L8.99847 365.437L9.02246 366.189L9.57916 366.865L10.2368 367.157L10.9661 366.582L11.2878 365.079L12.6796 365.101L14.2536 363.792L15.0071 364.305L16.1301 365.596L16.2116 366.918L15.8948 367.754L15.0742 369.032L14.6423 370.221L14.5033 372.282L15.0071 373.662L16.0532 374.568L17.4884 374.909L17.6899 375.639L17.2147 377.74L17.5363 378.965L18.592 379.248L19.8014 378.664L21.7884 379.871L22.4362 381.278L23.3193 381.535L24.6053 380.69L25.9012 380.018L26.6163 378.775L27.4369 378.762L29.0831 380.579L30.1246 380.434L31.0316 380.907L31.545 381.752L31.6506 382.402L32.3752 384.026L33.2392 384.238L36.0084 383.304L36.3923 383.264L37.904 383.871L40.3131 382.769L41.4121 382.008L42.7273 380.681L43.5575 380.296L45.6451 381.469L47.656 380.287L47.7566 379.708L46.8496 378.845L46.7201 378.062L47.4352 376.541L47.8 376.191L48.8461 376.386L49.3308 377.076L50.5163 376.904L50.5978 378.195L51.0441 378.938L52.6712 378.474L53.3141 378.921L54.7923 381.605L55.9058 381.659L56.616 382.473L56.6111 383.172L57.0863 384.49L56.8128 385.176L55.8529 386.021L55.6465 387.047L56.448 386.959L57.691 385.649L58.5741 385.693L59.9323 386.224L60.9209 386.883L61.1848 387.866L60.6281 389.251L60.6186 389.844L61.5783 390.728L62.975 392.999L63.4979 393.578L64.4867 396.353L63.9396 397.818L64.4388 398.911L65.7584 400.036L66.1471 400.793L66.0561 401.815L66.8527 402.762L68.3116 404.174L69.1996 406.109L69.1756 406.919L68.6619 408.721L66.7807 411.883L65.3505 412.219L64.6931 412.857L65.1346 413.517L67.0302 413.968L67.8173 415.129L68.4604 415.82L68.3596 416.842L69.3482 417.755L70.74 419.54L71.0135 420.12L72.1702 421.404L72.4917 422.193L73.3172 423.318L73.9315 423.624L74.4018 424.589L75.3233 425.52L76.6813 426.233L77.358 427.473L78.505 427.783L79.4265 428.213L79.6953 429.361L80.607 429.352L79.9928 430.264L81.1207 431.199L82.2485 430.716L82.3492 430.202L82.6324 430.841L83.2851 430.867L83.4002 430.521L86.803 430.752L88.6648 431.439L90.052 432.489L91.5829 434.093L93.9202 436.02L94.1888 436.65L94.7599 436.362L97.0683 434.704L97.8939 435.923L98.5466 435.963L99.2472 437.793L100.629 439.65L101.229 440L102.261 439.676L102.76 437.106L103.557 436.539L104.19 436.587L104.881 437.04L105.265 438.883L106.23 438.781L108.567 438.786L109.234 438.569L110.439 439.03L111.639 439.242L112.522 438.507L112.766 437.243L113.28 436.136L114.297 435.365L115.276 434.97L116.735 434.735L117.81 433.822L118.549 433.534L119.413 433.858L120.013 435.276L121.242 435.369L121.75 436.503L122.298 434.952L123.31 434.66L123.785 433.698L124.856 432.985L125.854 431.439L127.423 430.442L127.951 429.968L129.232 430.176L129.77 429.542L130.068 428.665L130.096 426.756L129.866 425.834L130.523 424.7L133.005 422.467L133.518 422.388L134.502 422.844L135.438 424.124L135.836 424.239L136.114 423.646L137.453 422.295L137.492 421.746L137.007 420.74L136.834 419.318L136.124 418.933L135.241 416.86L136.11 414.362L136.364 412.937L136.618 412.578L138.135 411.307L138.375 410.51L138.312 409.381L137.948 407.84L138.068 406.853L138.596 405.941L138.788 404.502L139.695 403.409L140.093 401.855L141.293 399.257L141.557 397.973L142.056 397.389L143.131 396.654L144.043 396.322L144.422 395.849L145.012 394.486L145.876 392.959L145.569 391.339L146.092 390.543L146.817 390.065L147.138 389.565L147.186 387.795L146.975 386.503L146.13 385.344L145.89 384.486L146.936 381.155L146.869 380.407L146.385 378.779L145.789 377.7L145.31 377.271L145.271 376.74L145.881 375.223L145.3 374.962L144.216 375.462L143.649 375.953L144.009 376.904L144.072 377.735L143.16 378.439L142.641 378.315L142.051 377.373L141.859 376.147L142.708 375.378L143.606 374.06L143.764 373.511L143.582 372.764L143.059 372.366L143.385 370.716L144.489 369.461L145.214 368.943L146.855 367.471L147.301 366.436L147.345 365.685L147.052 363.014L146.673 360.751L146.567 359.456L145.9 358.457L144.878 356.542L143.889 355.676L142.685 356.114L141.005 358.045L140.16 358.633L140.055 359.332L140.29 359.884L140.198 360.693L139.848 361.162L139.935 361.909L139.531 362.948L138.989 363.257L137.655 361.887L136.095 360.905L134.756 360.233L132.635 360.454L132.03 360.083L131.027 358.713L130.365 357.564L129.117 353.908L128.628 352.083L127.74 349.833L127.26 349.012L126.679 346.263L126.262 343.007L126.209 341.001L126.569 339.799L126.823 337.202L127.61 334.737L128.114 334.11L128.969 333.615L130.73 332.997L131.31 333.218L131.737 333.907L132.419 333.673L132.803 332.789L133.83 332.511L133.931 332.865L133.561 333.571L134.118 334.11L134.66 332.25L134.526 331.526L133.571 331.531L133.182 330.497L133.672 330.329L133.677 329.892L132.836 329.358L132.362 328.488L132.054 326.951L132.213 326.196L132.659 325.436L133.619 324.324L134.3 324.037L136.196 324.001L137.569 323.494L138.831 323.264L139.704 323.997L141.245 323.211L141.821 323.405L143.28 324.602L144.254 324.311L144.403 322.96L144.863 323.348L145.67 323.344L146.5 322.677L147.441 321.679L148.621 320.911L148.962 320.213L148.904 319.582L149.365 319.079L150.282 318.761L150.565 318.39L150.478 317.565L150.666 316.96L151.198 316.505L152.864 315.715L152.974 315.177L152.432 314.506L151.242 315.287L150.579 315.437L150.229 313.963L150.834 313.455L150.939 312.974L150.613 312.307L149.36 310.78L148.914 309.536L148.88 308.905L148.444 307.241L148.602 306.199L147.786 305.383L147.239 305.158L148.079 303.967L147.892 302.497L146.985 300.269L146.725 298.535L146.351 298.05L145.065 297.772L144.067 296.387L143.649 295.434L142.281 296.643L141.432 296.568L140.63 295.668L140.179 295.425L138.644 296.59L136.45 297.463L135.678 298.244L135.481 299.184L135.14 299.608L134.276 299.356L133.955 299.651L133.206 301.615L131.651 302.211L131.128 302.992L130.072 302.85L128.513 302.409L128.249 301.584L127.562 300.988L125.398 300.062L124.827 299.629L124.227 299.81L120.877 299.55L120.469 299.78L118.242 302.175L116.639 303.645L116.308 303.552L115.977 302.647L115.492 302.356L114.945 302.458L114.528 302.93L113.75 303.049L112.234 303.87L111.797 303.958L110.78 303.331L110.285 303.402L109.335 304.465L108.38 303.274L107.679 302.731L106.273 303.521L105.462 303.693L103.97 303.433L102.51 303.027L101.647 303.067L101.004 303.433L100.721 304.245L98.8729 305.013L98.2009 304.633L97.7546 303.68L96.3677 303.711L95.9933 302.974L94.2561 302.008L93.6993 301.182L92.8067 300.741L91.8997 300.561L90.8006 300.605L89.0056 301.24L88.0315 301.191L86.1934 299.674L84.696 300.825L83.7554 299.828L83.3715 299.802L83.1458 301.116L82.8195 301.187L82.0853 300.08L81.1735 299.704L80.4726 299.299L79.484 299.166L77.6459 298.438L77.075 298.738L77.027 300.358L76.6238 300.799L75.1025 301.09L73.9459 301.461L72.9573 301.046L71.959 301.399L69.9722 301.01L67.6685 300.19L66.7758 301.072L65.7777 303.009L65.221 303.596L64.0067 303.755L63.7812 304.307L64.7458 305.776L64.6163 306.407L63.8387 308.26L62.9174 308.949L61.7847 309.152L60.1194 309.946L58.6365 310.123L57.2063 311.089L56.3088 311.257L53.6549 311.301L52.9111 311.778L52.9926 312.546L52.3111 312.797L51.6537 312.546L51.6248 312.007L51.145 311.606L50.8426 312.846L49.8445 313.804L49.6043 313.265L48.755 313.098L48.7886 311.036L49.5661 310.136L49.5948 309.245L47.9295 308.313L46.8256 307.4L44.1573 305.974L43.4806 305.365L43.1207 304.58L43.5095 303.278L45.2418 301.602L45.9714 300.247L47.1617 298.421L47.2337 297.53L46.7345 296.387L46.1778 295.809L45.6884 294.777L45.7364 293.723L45.4436 293.193L43.9607 292.788L43.1687 291.486L41.8009 289.885L40.7594 290.269L39.9628 289.859L39.4158 291.522L38.7727 292.13L38.0575 293.145L37.5153 294.336L36.3729 294.98L35.3557 295.077L33.5031 294.975L33.0377 295.227L32.7449 296.149ZM81.0773 296.568L81.5381 296.383L81.7494 295.355L81.5861 294.94L80.823 294.83L78.3275 295.134L77.8812 294.79L77.3773 294.896L77.1565 294.406L76.7917 294.552L76.8686 295.465L76.4223 295.844L76.7773 296.061L77.7563 295.725L79.2154 295.62L79.8441 296.453L81.0773 296.568Z"  stroke="black" /><path d="M346.141 142.308L346.568 142.716L346.938 142.408L346.875 140.85L347.595 140.846L346.789 140.21L347.091 139.077L347.787 138.775L347.96 138.029L348.483 137.831L349.049 138.358L349.553 138.204L349.817 137.384L350.508 136.954L350.643 136.506L351.588 135.466L350.456 133.768L350.724 133.43L350.518 132.504L351.588 132.311L351.286 131.504L350.465 130.657L350.043 129.359L350.883 127.508L350.974 124.937L351.483 121.099L351.833 119.884L352.999 117.78L353.167 116.959L353.124 114.947L352.884 114.175L352.14 113.276L351.905 111.707L351.382 111.238V110.834L352.241 108.594L353.047 107.783L353.215 106.981L353.623 106.332L353.791 105.56L354.376 105.166L354.228 104.828L352.961 104.276L352.409 103.838L351.742 103.684L350.259 103.921L349.155 103.812L348.579 103.395L347.255 101.979L346.06 102.212L345.455 103.544L344.74 104.162L344.087 104.263L342.825 104.039L341.159 103.294L340.449 103.171L339.273 103.312L338.074 104.942L336.72 104.223L336.231 104.601L335.948 106.196L334.911 106.757L334.374 106.621L333.889 106.108L333.457 105.205L333.145 103.733L331.652 104.004L330.328 103.237L330.793 102.461L330.63 101.34L330.078 100.139L329.272 97.5923L328.581 96.1813L329.891 96.0016L329.363 94.3409L329.047 94.1175L328.878 93.0001L329.483 92.159L330.366 92.8554L331.22 92.2071L331.657 92.4305L331.623 93.0222L331.182 93.8457L331.336 94.3978L331.772 94.4462L332.574 92.7767L333.039 92.1896L333.409 90.735L333.985 89.5652L332.799 89.044L333.073 88.4436L334.479 88.4L334.561 87.9094L334.311 86.7747L334.791 86.2577L336.773 85.7408L337.695 85.6796L338.256 84.3522L338.366 83.4938L337.8 81.768L338.39 79.5473L339.408 78.317L338.909 76.517L339.816 74.2443L340.272 72.3529L339.802 71.8492L338.222 71.3544L337.776 70.8029L336.269 70.1285L335.636 69.2704L333.97 68.2286L333.375 67.4974L332.66 68.2943L331.681 68.3379L331.187 68.6969L331.379 70.041L329.603 70.6101L328.998 70.4787L328.389 69.9796L327.866 70.1418L326.469 69.6076L326.416 68.9378L325.75 68.6006L324.77 68.6487L323.902 68.0491L322.74 67.8258L321.704 67.1472L321.248 67.471L320.71 68.7713L320.657 70.1987L320.01 70.7372L319.966 71.1225L320.36 72.4358L321.589 74.1217L322.308 74.9319L322.755 76.2455L323.724 77.7519L324.732 77.2788L324.358 77.9623L324.555 78.5316L323.451 79.3415L322.457 79.6045L322.721 80.3182L323.95 81.5489L322.572 83.1258L322.299 83.7259L322.438 85.719L322.347 86.7132L321.756 89.39L321.329 89.4862L320.11 88.4699L319.558 88.7153L318.997 91.3745L319.016 92.3648L318.584 92.8863L318.426 94.3321L317.956 94.4286L316.405 93.2982L315.431 91.5673L315.378 91.0812L314.683 89.9333L312.72 90.0867L310.781 89.495L310.474 88.5401L310.075 88.2947L309.456 88.952L308.357 87.9663L306.749 86.8709L305.766 85.9336L305.305 84.4617L305.386 82.7405L305.617 81.8337L305.046 80.3751L304.383 79.8452L304.35 78.2994L304.139 77.5549L304.359 76.8061L302.766 75.4223L301.091 75.7549L300.026 76.1493L298.629 76.241L297.473 77.4278L296.935 77.5767L294.022 75.5318L292.28 75.5536L291.243 75.0412L290.523 74.9274L289.396 75.0282L288.81 74.6777L287.596 74.6471L286.742 75.234L286.329 75.1859L285.633 74.2969L284.836 74.2312L283.761 74.8399L282.413 76.0264L281.664 76.4644L281.251 75.7201L280.45 74.796L279.193 74.5376L277.748 74.8178L275.204 74.0911L273.4 73.0269L271.826 72.7687L271.231 72.3965L270.136 70.387L269.993 68.3116L269.575 68.2329L268.519 69.4324L267.622 69.3361L266.23 70.0716L264.972 69.3624L264.118 69.3667L262.592 70.5883L261.642 70.851L258.254 72.9394L256.814 73.1758L255.398 73.7845L254.251 74.8266L253.661 75.5799L252.634 77.4323L252.288 77.5987L251.664 77.1345L251.218 77.1214L251.271 78.9036L251.026 80.038L250.57 80.3533L248.439 80.5328L247.556 81.5446L246.592 81.8951L245.704 81.5446L245.234 81.5973L243.976 83.0864L242.541 83.6339L240.492 83.8004L240.036 84.1769L238.822 84.545L238.039 84.4705L236.581 85.1364L234.656 82.9154L234.013 82.403L232.722 81.7199L231.925 82.6176L231.105 82.6615L228.844 81.5008L227.995 80.6118L227.784 79.9811L227.141 79.403L225.922 78.7023L224.621 78.5534L221.454 78.3518L219.798 79.162L217.451 80.0731L216.587 80.2044L217.302 80.8219L218.104 83.3797L217.849 84.5801L216.63 86.4548L214.365 89.1621L213.78 90.3013L213.367 91.9487L213.429 92.6145L212.546 93.4078L211.779 93.2631L211.049 93.399L210.06 92.2465L209.528 92.1151L209.23 93.3245L208.433 93.2543L207.814 93.859L207.776 94.9982L208.381 95.6556L208.62 96.6589L208.088 98.2893L207.085 97.3689L206.355 97.7545L205.659 97.7282L204.868 98.7276L204.757 99.9633L203.644 100.305L203.198 100.634L202.214 100.713L201.911 101.309L201.479 101.471L200.755 100.27L200.227 99.8537L199.91 99.0036L199.099 97.9955L198.811 97.0796L198.763 96.2207L198.173 95.5373L197.75 94.5073L196.795 93.5918L195.898 93.32L195.212 93.9247L194.521 95.4716L193.7 96.6765L192.246 97.5136L192.097 98.0306L192.375 98.8238L193.282 100.638L193.796 103.084L193.709 104.706L192.778 105.88L191.171 106.31L190.523 106.656L188.742 108.305L187.648 109.449L186.559 109.734L185.383 109.155L185.028 109.291L184.471 110.4L183.717 111.54L181.745 113.048L180.598 113.188L180.593 114.552L180.987 116.367L181.615 117.565L182.738 118.999L183.132 120.086L183.257 121.169L185.042 124.678L183.943 126.292L184.029 127.2L186.947 128.644L188.714 129.854L189.212 130.692L189.947 131.272L191.473 131.64L191.718 133.048L192.078 133.698L192.85 134.523L193.162 136.497L193.959 136.839L194.842 137.515L195.571 137.467L195.691 139.477L195.912 140.025L196.752 140.591H197.333L198.773 139.402L199.886 139.126L200.875 138.682L201.523 138.972L203.039 140.363L205.871 140.096L206.83 139.718L207.574 138.761L207.968 137.252L208.721 136.598L209.379 135.22L209.94 134.733L212.061 134.755L213.535 135.045L215.195 136.221L215.719 136.216L218.843 134.724L219.246 134.352L219.587 133.294L222.149 132.421L222.716 132.759L223.023 133.891L223.455 134.36L224.477 134.483L225.235 134.233L225.72 134.391L226.55 135.084L227.174 135.892L227.467 136.603L227.553 137.625L228.22 137.928L228.979 137.73L230.111 137.818L230.682 138.511L231.373 138.911L232.012 138.713L232.521 137.638L232.876 137.296L233.831 137.046L235.342 137.309L236.461 138.143L236.825 139.582L236.739 142.619L237.296 144.252L238.183 144.862L240.094 145.529L240.761 146.223L241.409 146.095L242.776 146.359L244.35 146.003L245.046 147.052L246.5 147.201L247.225 146.025L248.67 144.006L249.591 143.69L249.999 141.97L249.346 141.373L249.898 140.736L250.805 140.078L251.674 140.008L252.389 139.161L253.426 139.674L254.477 139.635L255.134 139.13L255.888 137.858L256.444 135.861L257.352 135.256L258.417 135.8L259.569 134.158L259.453 133.154L260.509 131.965L260.48 131.412L262.314 132.267L263.091 133.364L263.725 133.593L265.462 133.799L266.695 133.549L267.987 132.719L270.079 132.539L271.643 131.688L273.309 131.219L274.657 131.149L276.059 130.613L277.666 131.079L278.621 131.614L279.581 131.32L281.88 131.263L282.624 131.96L283.589 132.364L284.899 132.131L286.017 132.956L286.9 133.149L288.181 133.794L288.546 134.589L288.729 136.91L289.492 138.204L289.05 139.257L289.276 140.183L290.024 141.219L292.049 142.136L292.851 141.728L294.204 142.356L296.033 141.258L296.921 141.531L297.333 142.452L297.861 142.597L298.423 141.654L298.313 140.403L298.572 139.135L299.248 138.792L299.579 139.293L300.184 138.661L300.698 138.524L301.345 139.108L302.022 140.596L302.747 141.487L303.011 142.909L303.472 144.107L304.038 144.787L304.676 146.776L305.535 148.395L305.775 150.068L306.884 150.805L306.841 151.534L308.002 151.754L310.291 149.282L311.078 149.146L312.619 148.312L314.495 147.605L316.549 146.073L316.962 145.472L316.809 145.033L316.117 144.357L315.383 142.395L315.412 141.667L317.01 141.188L317.365 140.785L318.344 140.372L319.64 141.004L320.139 140.464L321.392 140.512L321.78 141.338L323.019 142.391L323.244 143.835L323.81 144.107L324.247 143.216L324.622 143.343L324.626 145.779L323.897 148.373L323.902 149.769L324.276 150.125L324.703 151.521L325.845 151.565L326.892 151.89L327.304 151.504L328.072 150.121L328.634 150.169L329.349 148.176L329.882 147.122L331.024 146.995L332.137 147.368L332.262 146.447L333.308 147.307L334.134 147.241L334.431 146.74L334.335 146.218L334.954 144.581L336.505 143.124L336.831 142.492L337.45 140.469L337.843 140.306L339.192 140.96L340.459 140.521L341.294 139.016L342.158 138.336L343.257 138.292L343.66 138.586L343.535 140.122L344.303 140.512L344.889 141.592L345.061 142.382L346.141 142.308Z"  stroke="black" /><path d="M32.7449 296.149L33.0377 295.227L33.5031 294.975L35.3557 295.077L36.3729 294.98L37.5153 294.336L38.0575 293.145L38.7727 292.13L39.4158 291.522L39.9628 289.859L40.7594 290.269L41.8009 289.885L43.1687 291.486L43.9607 292.788L45.4436 293.193L45.7364 293.723L45.6884 294.777L46.1778 295.809L46.7345 296.387L47.2337 297.53L47.1617 298.421L45.9714 300.247L45.2418 301.602L43.5095 303.278L43.1207 304.58L43.4806 305.365L44.1573 305.974L46.8256 307.4L47.9295 308.313L49.5948 309.245L49.5661 310.136L48.7886 311.036L48.755 313.098L49.6043 313.265L49.8445 313.804L50.8426 312.846L51.145 311.606L51.6248 312.007L51.6537 312.546L52.3111 312.797L52.9926 312.546L52.9111 311.778L53.6549 311.301L56.3088 311.257L57.2063 311.089L58.6365 310.123L60.1194 309.946L61.7847 309.152L62.9174 308.949L63.8387 308.26L64.6163 306.407L64.7458 305.776L63.7812 304.307L64.0067 303.755L65.221 303.596L65.7777 303.009L66.7758 301.072L67.6685 300.19L69.9722 301.01L71.959 301.399L72.9573 301.046L73.9459 301.461L75.1025 301.09L76.6238 300.799L77.027 300.358L77.075 298.738L77.6459 298.438L77.7563 295.725L76.7773 296.061L76.4223 295.844L76.8686 295.465L76.7917 294.552L77.1565 294.406L77.3773 294.896L77.8812 294.79L78.3275 295.134L80.823 294.83L81.5861 294.94L81.7494 295.355L81.5381 296.383L81.0773 296.568L81.1735 299.704L82.0853 300.08L82.8195 301.187L83.1458 301.116L83.3715 299.802L83.7554 299.828L84.696 300.825L86.1934 299.674L88.0315 301.191L89.0056 301.24L90.8006 300.605L91.8997 300.561L92.8067 300.741L93.6993 301.182L94.2561 302.008L95.9933 302.974L96.3677 303.711L97.7546 303.68L98.2009 304.633L98.8729 305.013L100.721 304.245L101.004 303.433L101.647 303.067L102.51 303.027L103.97 303.433L105.462 303.693L106.273 303.521L107.679 302.731L108.38 303.274L109.335 304.465L110.285 303.402L110.78 303.331L111.797 303.958L112.234 303.87L113.75 303.049L114.528 302.93L114.945 302.458L115.492 302.356L115.977 302.647L116.308 303.552L116.639 303.645L118.242 302.175L120.469 299.78L120.877 299.55L124.227 299.81L124.827 299.629L125.028 299.224L124.668 298.156L125.532 296.983L125.628 296.466L125.508 294.521L126.468 293.462L127.577 293.507L130.188 291.844L131.627 290.053L131.819 288.637L132.323 288.593L132.846 287.79L132.597 287.032L132.736 286.256L133.317 285.824L134.828 284.143L135.044 283.301L135.558 282.323L135.706 281.643L134.977 280.753L134.545 279.668L134.416 278.826L134.876 277.803L134.617 275.943L134.622 274.06L135.327 273.346L134.814 272.002L134.919 271.464L135.534 271.173L135.764 270.539L135.611 269.974L135.946 268.934L135.97 266.501L136.374 264.8L135.946 264.104L135.822 263.417L135.966 262.147L137.314 261.183L138.644 261.672L139.32 261.504L138.965 260.293L137.852 259.226L138.02 258.151L139.272 257.186L139.373 256.53L138.408 254.548L138.85 253.226L139.416 252.662L140.304 252.852L140.707 252.275L140.458 250.513L139.536 249.182L140.064 247.843L141.657 247.813L142.464 248.073L142.636 247.095L143.184 246.637L143.246 245.927L143.774 245.699L144.148 243.884L144.998 244.073L146.27 243.765L146.98 244.021L148.189 242.986L148.991 241.889L150.805 241.317L152.125 240.489L151.769 240.031L152.398 238.613L152.052 237.724L151.712 235.91L151.03 234.668L151.121 233.207L150.8 232.481L149.998 231.318L150.373 229.373L151.213 229.28L151.769 228.162L151.865 226.248L151.419 224.628L150.33 224.087L149.816 222.908L148.717 222.314L148.544 221.812L149.063 220.707L148.799 220.126L147.877 219.418L146.567 219.378L145.756 218.78L145.161 217.57L143.851 216.329L143.083 214.323L141.955 213.47L140.885 213.461L139.397 212.282L137.621 210.443L137.261 210.219L136.551 210.707L135.428 210.355L135.02 209.009L134.286 207.298L132.918 205.68L131.464 205.38L131.162 204.945L131.056 203.92L131.334 201.831L130.994 201.484L129.592 201.901L128.157 202.086L127.097 201.378L126.809 200.974L126.079 199.048L125.407 198.111L124.548 197.223L123.339 196.792L122.053 196.783L121.28 196.365L120.805 195.231L119.98 194.33L118.482 193.868L118.036 192.949L117.657 191.345L117.393 190.896L116.634 190.365L113.952 189.542L113.563 189.331L113.093 188.413L112.954 186.549L112.728 185.371L113.088 183.824L112.944 183.033L110.899 181.236L109.661 181.57L108.697 183.424L107.66 184.751L106.825 185.147L105.654 185.292L104.925 186.593L104.502 187.881L103.341 188.769L99.3432 190.189L97.9225 189.903L96.838 190.545L96.3677 190.567L95.0814 189.868L94.2992 189.898L93.1617 190.721L91.8468 192.053L90.503 193.007L88.2234 193.767L87.6476 194.308L87.5467 194.827L87.8251 195.75L88.5929 196.858L88.6122 197.667L87.9595 198.942L88.4538 200.376L88.1035 201.646L87.5179 201.976L86.4573 202.104L85.5407 202.552L81.8598 203.907L80.6504 203.709L79.4554 203.92L78.198 204.694L77.9003 205.754L76.3214 207.113L76.1584 207.716L76.5229 208.719L77.5068 209.502L78.337 210.628L78.5819 211.613L78.2555 212.216L77.3869 212.062L76.979 212.313L76.6527 213.17L75.8702 214.398L75.5776 215.616L76.8302 218.063L77.358 218.872L77.3918 219.713L77.0557 220.478L76.3214 221.249L74.6128 222.221L74.0563 223.022L73.0293 223.308L72.5732 224.364L71.7381 224.875L71.6375 225.671L70.8311 226.31L69.6074 227.573L68.8972 228.096L67.7884 227.894L67.2941 228.061L66.0032 228.915L65.5618 228.695L65.1777 229.021L64.7553 230.808L64.8178 231.503L65.2305 232.018L65.1154 232.96L65.3889 234.193L65.2305 234.955L64.7793 235.377L63.1669 235.782L62.3174 235.562L62.0295 237.332L62.111 238.626L61.7751 239.767L61.78 240.542L61.4392 240.612L59.9803 239.78L59.3516 239.56L58.3246 239.701L56.2272 240.863L55.4019 240.683L54.6915 240.771L53.8997 241.18L53.6742 241.911L53.8708 242.818L53.6358 243.906L52.2631 245.54L50.6313 246.738L50.425 248.09L49.9116 248.984L49.206 249.803L48.8461 250.993L47.987 251.68L46.8065 253.023L46.3457 253.318L45.7459 254.248L45.6739 254.803L46.0243 256.112L45.7555 257.816L45.9954 258.702L45.8803 259.53L45.4675 259.94L44.4692 260.099L43.3846 259.949L42.6455 260.332L40.8938 260.597L40.1789 261.707L37.6881 262.733L35.9171 262.923L34.4582 262.897L33.3016 261.31L32.3226 262.073L31.8139 262.24L29.8607 262.077L28.9007 262.61L28.4209 262.588L25.7286 261.76L24.6678 264.174L23.1513 264.778L22.177 264.677L21.5436 265.629L21.9755 267.484L23.084 269.648L24.3752 270.323L24.5334 271.561L24.8502 272.381L24.6487 273.977L24.6342 275.819L25.0614 276.296L25.9587 276.229L26.7316 277.309L26.4339 278.063L26.7891 282.234L27.0002 282.883L27.8786 283.279L28.2769 284.805L28.8432 285.175L29.1071 286.485L29.1262 287.486L28.0368 286.975L27.8737 287.323L27.1586 287.142L27.7393 287.967L28.488 288.536L29.1022 288.236L29.3135 288.664L30.8155 289.206L31.1467 289.771L31.0556 290.772L31.8618 291.919L32.2266 292.152L32.5816 293.537L33.1097 295.029L32.7736 295.267L32.7449 296.149ZM81.1735 299.704L81.0773 296.568L79.8441 296.453L79.2154 295.62L77.7563 295.725L77.6459 298.438L79.484 299.166L80.4726 299.299L81.1735 299.704Z"  stroke="black" /><path d="M254.419 192.255L252.792 192.879L251.938 192.589L251.122 191.441L249.898 191.626L249.231 191.204L248.847 190.25L248.363 189.898L247.604 190.048L246.601 191.239L246.371 192.505L245.061 193.178L244.494 193.697L244.331 194.822L244.47 195.79L244.182 196.379L243.098 197.619L242.037 198.353L242.066 200.12L240.401 200.974L240.084 202.873L239.758 203.753L240.012 205.257L239.806 206.106L239.129 206.709L237.502 206.691L236.95 206.418L236.091 205.583L236.115 204.932L235.673 204.901L233.802 206.489L233.125 206.673L232.391 206.353L231.637 207.738L230.687 208.055L230.011 208.754L229.003 208.42L228.7 208.6L227.976 210.782L228.052 212.286L227.486 213.179L224.732 213.263L223.488 212.154L223.037 212.515L222.567 213.426L221.756 213.074L220.748 213.078L220.278 212.365L219.073 214.028L218.425 214.178L218.065 212.167L216.822 212.251L215.671 213.052L215.44 213.703L214.375 215.489V215.898L215.123 217.839L215.575 220.369L214.874 221.231L213.665 221.09L212.623 221.662L212.071 220.866L211.586 220.822L210.934 221.825L210.828 222.802L210.324 224.069L208.784 224.474L207.685 223.607L206.557 223.282L205.132 223.484L204.82 223.858L203.898 223.973L202.626 224.576L202.866 225.676L202.118 227.168L202.818 228.449L203.015 229.905L203.322 230.816L203.217 232.08L201.263 232.674L200.764 232.714L199.857 234.123L199.276 234.651L198.365 234.911L197.395 234.73L196.013 235.399L195.178 236.231L194.856 236.997L194.972 238.309L195.264 239.639L194.813 240.317L194.818 241.374L194.448 241.731L193.412 242.092L192.726 243.052L192.553 243.928L192.86 245.254L192.534 246.571L191.468 246.848L191.305 247.205L191.339 248.68L191.008 248.812L190.432 247.94L189.976 247.663L189.611 248.447L189.625 249.499L188.555 249.275L188.2 249.715L188.426 250.997L187.73 251.825L186.208 252.253L185.753 252.028L184.663 250.671L182.906 251.006L181.774 251.887L179.95 252.631L179.11 252.195L178.155 250.697L178.299 249.609L177.263 248.174L177.291 246.117L177.191 245.029L176.12 244.487L175.866 243.906L176 242.704L174.729 241.453L173.788 241.916L172.54 241.299L171.696 241.141L169.608 240.242L168.826 240.335L167.664 241.017L166.297 242.035L165.505 241.876L164.602 241.405L163.532 241.295L160.753 241.876L159.947 242.492L159.889 243.413L159.443 244.501L158.824 244.505L157.927 243.946L157.596 243.968L154.98 246.403L154.265 245.487L153.252 243.906L152.422 242.942L152.316 241.061L152.125 240.489L150.805 241.317L148.991 241.889L148.189 242.986L146.98 244.021L146.27 243.765L144.998 244.073L144.148 243.884L143.774 245.699L143.246 245.927L143.184 246.637L142.636 247.095L142.464 248.073L141.657 247.813L140.064 247.843L139.536 249.182L140.458 250.513L140.707 252.275L140.304 252.852L139.416 252.662L138.85 253.226L138.408 254.548L139.373 256.53L139.272 257.186L138.02 258.151L137.852 259.226L138.965 260.293L139.32 261.504L138.644 261.672L137.314 261.183L135.966 262.147L135.822 263.417L135.946 264.104L136.374 264.8L135.97 266.501L135.946 268.934L135.611 269.974L135.764 270.539L135.534 271.173L134.919 271.464L134.814 272.002L135.327 273.346L134.622 274.06L134.617 275.943L134.876 277.803L134.416 278.826L134.545 279.668L134.977 280.753L135.706 281.643L135.558 282.323L135.044 283.301L134.828 284.143L133.317 285.824L132.736 286.256L132.597 287.032L132.846 287.79L132.323 288.593L131.819 288.637L131.627 290.053L130.188 291.844L127.577 293.507L126.468 293.462L125.508 294.521L125.628 296.466L125.532 296.983L124.668 298.156L125.028 299.224L124.827 299.629L125.398 300.062L127.562 300.988L128.249 301.584L128.513 302.409L130.072 302.85L131.128 302.992L131.651 302.211L133.206 301.615L133.955 299.651L134.276 299.356L135.14 299.608L135.481 299.184L135.678 298.244L136.45 297.463L138.644 296.59L140.179 295.425L140.63 295.668L141.432 296.568L142.281 296.643L143.649 295.434L144.225 294.975L145.214 293.705L146.37 293.176L147.373 291.433L147.887 290.842L148.808 291.028L149.048 290.009L148.103 289.947L147.839 289.383L148.146 288.734L149.427 288.17L150.546 288.924L151.861 288.747L153.771 289.228L154.918 288.734L156.242 287.777L156.732 286.913L157.485 286.697L158.248 286.088L158.719 284.77L159.976 283.879L162.174 283.936L163.34 283.389L164.718 281.851L165.793 281.82L166.272 282.186L167.41 281.494L168.125 282.12L168.518 282.926L168.878 283.147L169.886 282.472L170.424 282.644L172.017 284.703L172.43 284.761L173.154 284.152L174.388 283.817L175.333 283.372L175.751 282.296L176.164 282.111L178.05 282.988L178.981 282.428L179.686 281.268L180.425 280.854L181.208 281.061L181.596 281.577L182.019 281.59L182.609 281L184.452 282.574L184.783 282.539L185.45 281.723L186.492 281.295L187.192 282.084L187.73 282.159L188.464 281.798L189.294 280.867L189.625 281.013L189.851 282.067L189.736 283.072L188.464 284.068L188.008 285.383L188.368 286.384L189.798 287.336L190.321 287.23L190.657 288.575L190.196 289.471L189.774 292.488L189.385 293.511L188.238 293.908L187.734 294.574L187.864 295.695L187.744 296.815L187.931 297.463L188.68 298.637L189.923 298.518L190.326 300.362L191.128 301.571L191.199 301.995L192.174 302.815L193.983 302.414L196.109 301.69L196.287 301.09L197.496 299.934L198.168 298.39L198.95 298.077L200.073 298.527L201.81 298.809L202.809 298.288L204.167 298.897L204.599 298.813L206.058 297.816L206.941 298.43L208.496 297.741L209.787 298.333L209.681 299.162L210.223 300.455L210.166 302.497L210.545 305.026L211.486 303.931L212.018 303.702L213.112 303.742L214.207 303.446L214.999 302.436L215.334 301.443L215.997 302.233L216.198 303.711L216.789 304.223L217.077 303.702L217.014 302.325L217.12 301.24L217.389 300.393L216.448 299.184L217.604 297.199L218.147 295.8L218.636 294.94L219.265 294.543L221.185 294.239L222.375 293.599L224.309 293.013L224.899 292.62L225.576 289.793L226.363 288.342L226.91 287.707L227.601 285.704L228.494 285.374L229.31 285.528L229.761 285.215L231.177 284.765L231.781 284.986L232.352 286.375L233.514 287.61L233.62 289.669L234.421 290.454L235.851 290.538L237.046 290.234L238.068 290.176L238.299 289.735L238.279 288.845L239.311 288.249L240.535 288.192L241.336 288.443L242.133 289.294L242.704 290.357L243.53 290.653L245.018 290.357L245.521 290.013L246.39 288.457L246.611 287.217L245.517 285.974L244.984 285.85L243.693 286.397L243.276 285.784L243.107 284.633L243.17 282.816L243.525 282.327L242.872 281.33L242.882 280.581L243.842 279.651L244.087 278.482L245.032 277.812L244.96 276.608L246.169 276.406L247.417 276.622L247.638 275.974L247.436 274.043L247.571 273.54L248.617 273.404L249.966 273.783L250.335 272.742L249.202 271.275L250.239 269.406L251.688 267.498L251.904 266.246L251.357 264.06L251.108 263.448L251.093 262.522L251.952 260.411L252.072 259.839L251.775 257.979L252.144 257.31L255.283 255.671L255.249 253.891L256.44 252.486L256.915 251.253L256.867 249.988L256.564 248.936L256.233 248.548L254.045 248.24L252.956 247.077L252.715 246.042L252.975 245.082L252.836 244.373L251.319 243.409L251.444 241.401L252 240.308L252.879 240.168L254.098 240.225L257.088 238.635L257.99 238.072L258.887 237.812L260.672 239.406L261.656 239.133L263.418 237.636L264.181 237.852L265.021 239.005L266.374 239.468L269.786 237.807L270.578 236.615L270.746 234.281L270.703 232.841L271.034 231.023L270.885 230.495L268.86 229.861L268.27 229.069L267.799 228.858L266.787 229.056L265.841 229.624L264.809 229.091L263.504 228.074L263.389 226.226L262.818 224.43L262.333 223.898L261.167 223.348L259.06 221.9L258.134 220.782L257.054 218.908L254.285 218.124L253.738 217.821L253.445 217.016L252.73 216.611L252.557 215.999L252.927 215.15L252.192 213.21L253.229 210.724L253.555 210.333L253.69 209.181L254.031 208.723L253.555 206.651L253.522 205.178L253.013 202.425L252.471 200.723L253.118 200.024L253.238 199.048L253.061 196.471L253.128 195.706L254.419 192.255Z"  stroke="black" /><path d="M180.593 114.552L180.229 115.508L179.83 115.666L179.912 116.161L179.609 116.832L178.995 118.104L177.584 120.27L177.287 121.016L177.915 122.604L178.419 124.319L178.683 124.77L178.271 125.696L177.949 127.534L176.706 127.981L174.714 129.262L174.244 131.601L173.764 132.64L173.534 133.698L173.419 136.001L172.353 138.283L171.696 139.13L171.465 139.797L171.556 141.838L171.393 142.492L170.51 142.759L168.73 142.58L168.015 142.926L167.477 143.562L166.618 143.119L165.529 142.838L163.58 143.067L158.896 144.502L157.85 144.967L156.957 145.928L156.588 146.745L156.084 147.171L155.186 147.403L153.862 147.157L153.425 147.921L152.561 148.725L151.294 148.861L145.857 146.144L144.595 146.495L143.904 146.319L142.977 145.546L141.533 145.279L140.491 145.314L139.479 146.973L138.293 148.18L138.154 150.028L137.693 151.148L136.724 151.819H136.201L136.153 153.071L135.735 154.16L134.929 155.2L133.782 155.999L133.211 156.684L132.184 156.978L131.215 157.809L130.648 159.288L130.831 160.263L129.664 161.985L128.695 162.376L126.675 162.419L125.052 162.037L124.51 165.331L124.304 167.361L124.443 169.86L124.342 171.138L124.62 173.616L124.529 174.218L123.061 174.763L122.269 175.202L119.044 175.4L118.449 175.936L117.441 177.452L115.54 179.008L114.633 179.03L113.045 179.887L111.61 180.888L110.899 181.236L112.944 183.033L113.088 183.824L112.728 185.371L112.954 186.549L113.093 188.413L113.563 189.331L113.952 189.542L116.634 190.364L117.393 190.896L117.657 191.345L118.036 192.949L118.482 193.868L119.98 194.33L120.805 195.231L121.28 196.365L122.053 196.783L123.339 196.792L124.548 197.223L125.407 198.111L126.079 199.048L126.809 200.974L127.097 201.378L128.157 202.086L129.592 201.901L130.994 201.484L131.334 201.831L131.056 203.92L131.162 204.945L131.464 205.38L132.918 205.679L134.286 207.298L135.02 209.009L135.428 210.355L136.551 210.707L137.261 210.219L137.621 210.443L139.397 212.282L140.885 213.461L141.955 213.47L143.083 214.323L143.851 216.329L145.161 217.57L145.756 218.78L146.567 219.378L147.877 219.418L148.799 220.126L149.063 220.707L148.544 221.812L148.717 222.313L149.816 222.907L150.33 224.087L151.419 224.628L151.865 226.248L151.769 228.162L151.213 229.28L150.373 229.373L149.998 231.318L150.8 232.481L151.121 233.207L151.03 234.668L151.712 235.91L152.052 237.724L152.398 238.613L151.769 240.031L152.125 240.489L152.316 241.061L152.422 242.942L153.252 243.906L154.265 245.487L154.98 246.403L157.596 243.968L157.927 243.946L158.824 244.505L159.443 244.501L159.889 243.413L159.947 242.492L160.753 241.876L163.532 241.295L164.602 241.405L165.505 241.876L166.297 242.035L167.664 241.017L168.826 240.335L169.608 240.242L171.696 241.141L172.54 241.299L173.788 241.916L174.729 241.453L176 242.704L175.866 243.906L176.12 244.487L177.191 245.029L177.291 246.117L177.263 248.174L178.299 249.609L178.155 250.697L179.11 252.195L179.95 252.631L181.774 251.887L182.906 251.006L184.663 250.671L185.753 252.028L186.208 252.252L187.73 251.825L188.426 250.997L188.2 249.715L188.555 249.275L189.625 249.499L189.611 248.447L189.976 247.663L190.432 247.94L191.008 248.812L191.339 248.68L191.305 247.205L191.468 246.848L192.534 246.571L192.86 245.254L192.553 243.928L192.726 243.052L193.412 242.092L194.448 241.731L194.818 241.374L194.813 240.317L195.264 239.639L194.972 238.309L194.856 236.997L195.178 236.231L196.013 235.399L197.395 234.73L198.365 234.911L199.276 234.651L199.857 234.123L200.764 232.714L201.263 232.674L203.217 232.08L203.322 230.816L203.015 229.905L202.818 228.449L202.118 227.168L202.866 225.676L202.626 224.575L203.898 223.972L204.82 223.858L205.132 223.484L206.557 223.282L207.685 223.607L208.784 224.474L210.324 224.069L210.828 222.802L210.934 221.825L211.586 220.822L212.071 220.866L212.623 221.662L213.665 221.09L214.874 221.231L215.575 220.369L215.123 217.838L214.375 215.898V215.489L215.44 213.703L215.671 213.051L216.822 212.251L218.065 212.167L218.425 214.178L219.073 214.028L220.278 212.365L220.748 213.078L221.756 213.074L222.567 213.425L223.037 212.515L223.488 212.154L224.732 213.263L227.486 213.179L228.052 212.286L227.976 210.782L228.7 208.6L229.003 208.42L230.011 208.754L230.687 208.054L231.637 207.738L232.391 206.352L233.125 206.673L233.802 206.489L235.673 204.901L236.115 204.932L236.091 205.583L236.95 206.418L237.502 206.691L239.129 206.709L239.806 206.106L240.012 205.257L239.758 203.753L240.084 202.873L240.401 200.974L242.066 200.12L242.037 198.353L243.098 197.619L244.182 196.379L244.47 195.79L244.331 194.822L244.494 193.697L245.061 193.178L246.371 192.505L246.601 191.239L247.604 190.048L248.363 189.898L248.847 190.25L249.231 191.204L249.898 191.626L251.122 191.441L251.938 192.589L252.792 192.879L254.419 192.255L254.525 191.125L255.24 190.101L255.883 188.896L256.828 188.632L258.311 187.099L260.802 186.896L262.352 186.663L263.494 186.773L264.123 186.285L263.859 184.681L263.139 183.758L263.178 183.205L263.768 182.866L264.123 182.053L264.296 180.932L263.744 180.721L263.451 179.684L263.686 179.183L263.312 178.08L262.069 177.826L261.709 176.674L261.32 176.353L261.263 175.299L260.84 172.852L261.003 171.828L260.658 171.213L259.406 171.301L257.985 171.051L257.697 171.31L255.95 171.336L255.302 170.739L253.728 170.001L253.45 169.241L252.84 168.674L252.312 168.582L250.872 166.921L250.033 166.504L249.231 166.706L248.641 166.566L247.849 165.582L247.408 165.731L245.099 165.507L244.845 164.536L243.635 164.611L241.183 164.277L240.837 163.698L240.982 162.283L241.807 161.128L241.759 159.569L241.341 158.665L241.413 156.798L240.348 155.74L240.439 154.893L241.125 153.98L241.14 153.299L240.386 152.201L239.638 151.789L238.697 152.074L237.444 150.059L237.689 148.887L237.632 147.851L240.761 146.223L240.094 145.529L238.183 144.862L237.296 144.252L236.739 142.619L236.825 139.582L236.461 138.143L235.342 137.309L233.831 137.046L232.876 137.296L232.521 137.638L232.012 138.713L231.373 138.911L230.682 138.511L230.111 137.818L228.979 137.73L228.22 137.928L227.553 137.625L227.467 136.602L227.174 135.892L226.55 135.084L225.72 134.391L225.235 134.233L224.477 134.483L223.455 134.36L223.023 133.891L222.716 132.759L222.149 132.421L219.587 133.294L219.246 134.351L218.843 134.724L215.719 136.216L215.195 136.221L213.535 135.045L212.061 134.755L209.94 134.733L209.379 135.22L208.721 136.598L207.968 137.252L207.574 138.761L206.83 139.718L205.871 140.096L203.039 140.363L201.523 138.972L200.875 138.682L199.886 139.126L198.773 139.402L197.333 140.591H196.752L195.912 140.025L195.691 139.477L195.571 137.467L194.842 137.515L193.959 136.839L193.162 136.497L192.85 134.522L192.078 133.698L191.718 133.048L191.473 131.64L189.947 131.272L189.212 130.692L188.714 129.854L186.947 128.644L184.029 127.2L183.943 126.292L185.042 124.678L183.257 121.169L183.132 120.086L182.738 118.999L181.615 117.565L180.987 116.367L180.593 114.552Z"  stroke="black" /><path d="M216.587 80.2044L217.451 80.0731L219.798 79.162L221.454 78.3518L224.621 78.5534L225.922 78.7023L227.141 79.403L227.784 79.9811L227.995 80.6118L228.844 81.5008L231.105 82.6615L231.925 82.6176L232.722 81.7199L234.013 82.403L234.656 82.9154L236.581 85.1364L238.039 84.4705L238.822 84.545L240.036 84.1769L240.492 83.8004L242.541 83.6339L243.976 83.0864L245.234 81.5973L245.704 81.5446L246.592 81.8951L247.556 81.5446L248.439 80.5328L250.57 80.3533L251.026 80.038L251.271 78.9036L251.218 77.1214L251.664 77.1345L252.288 77.5987L252.634 77.4323L253.661 75.5799L254.251 74.8266L255.398 73.7845L256.814 73.1758L258.254 72.9394L261.642 70.851L262.592 70.5883L264.118 69.3667L264.972 69.3624L266.23 70.0716L267.622 69.3361L268.519 69.4324L269.575 68.2329L269.993 68.3116L270.136 70.387L271.231 72.3965L271.826 72.7687L273.4 73.0269L275.204 74.0911L277.748 74.8178L279.193 74.5376L280.45 74.796L281.251 75.7201L281.664 76.4644L282.413 76.0264L283.761 74.8399L284.836 74.2312L285.633 74.2969L286.329 75.1859L286.742 75.234L287.596 74.6471L288.81 74.6777L289.396 75.0282L290.523 74.9274L291.243 75.0412L292.28 75.5536L294.022 75.5318L296.935 77.5767L297.473 77.4278L298.629 76.241L300.026 76.1493L301.091 75.7549L302.766 75.4223L304.359 76.8061L304.139 77.5549L304.35 78.2994L304.383 79.8452L305.046 80.3751L305.617 81.8337L305.386 82.7405L305.305 84.4617L305.766 85.9336L306.749 86.8709L308.357 87.9663L309.456 88.952L310.075 88.2947L310.474 88.5401L310.781 89.495L312.72 90.0867L314.683 89.9333L315.378 91.0812L315.431 91.5673L316.405 93.2982L317.956 94.4286L318.426 94.3321L318.584 92.8863L319.016 92.3648L318.997 91.3745L319.558 88.7153L320.11 88.4699L321.329 89.4862L321.756 89.39L322.347 86.7132L322.438 85.719L322.299 83.7259L322.572 83.1258L323.95 81.5489L322.721 80.3182L322.457 79.6045L323.451 79.3415L324.555 78.5316L324.358 77.9623L324.732 77.2788L323.724 77.7519L322.755 76.2455L322.308 74.9319L321.589 74.1217L320.36 72.4358L319.966 71.1225L320.01 70.7372L320.657 70.1987L320.71 68.7713L321.248 67.471L321.704 67.1472L322.74 67.8258L323.902 68.0491L324.77 68.6487L325.75 68.6006L326.416 68.9378L326.469 69.6076L327.866 70.1418L328.389 69.9796L328.998 70.4787L329.603 70.6101L331.379 70.041L331.187 68.6969L331.681 68.3379L332.66 68.2943L333.375 67.4974L333.97 68.2286L335.636 69.2704L336.269 70.1285L337.776 70.8029L338.222 71.3544L339.802 71.8492L340.272 72.3529L340.632 72.5805L342.83 75.5842L343.228 75.4441L343.818 74.1568L344.644 73.8853L344.749 72.9921L345.383 72.8169L345.575 71.2887L346.323 70.0323L347.6 68.5567L348.032 67.7601L348.051 66.9501L347.187 64.7833L346.856 63.2075L346.136 61.3297L346.549 60.2748L346.396 58.7212L345.695 57.8373L344.178 57.4914L344.385 56.6644L344.255 55.951L343.564 54.6688L343.18 53.6582L342.46 52.6475L342.417 51.8599L342.926 50.3634L342.734 49.6197L341.447 48.3333L341.212 46.5353L339.859 44.9737L339.585 43.6921L339.197 42.8303L338.482 41.8548L337.815 40.5689L337.32 39.27L337.167 38.2814L335.66 37.7435L335.468 36.3793L335.041 35.7451L334.249 34.0573L333.831 32.7717L334.753 31.556L334.949 30.4367L335.727 30.7166L335.746 30.0301L336.519 29.9208L335.856 28.2593L336.072 27.0485L336.408 26.4758L335.784 24.797L335.242 24.5609V23.8704L335.54 22.7249L335.511 21.4575L335.021 20.6971L333.999 20.8194L332.348 19.8098L331.144 19.7617L330.635 19.2023L330.265 18.2669L329.747 18.2058L328.96 16.8508L328.398 16.4534L328.826 14.8669L329.593 14.2245L330.419 12.7606L330.5 11.9087L330.126 11.0696L328.883 10.41L326.7 9.6453L326.517 9.3483L325.356 9.4794L324.305 10.1433L322.798 10.3225L322.179 9.8681L321.593 9.1035L320.062 9.0205L319.458 9.1561L319.103 7.8453L319.208 6.6439L317.495 6.0324L316.597 5.3682L315.959 5.5822L315.215 5.3201L313.478 4.2717L311.664 4.0141L310.416 3.6254L308.3 2.1793L306.562 1.131L304.407 0.441101L302.329 0.100201L300.026 0.200699L298.101 1.1398L297.607 1.0962L296.887 0.082901L296.134 0L294.775 0.672401L292.851 0.855801L291.949 1.3889L288.22 2.7297L287.241 2.7342L285.47 2.3849L284.376 2.0398L283.022 1.4237L281.438 1.4283L278.511 3.8174L277.234 4.3068L276.14 4.5296L274.221 4.5775L273.549 5.1978L271.859 5.6873L271.255 6.1283L269.455 6.4867L268.135 6.5785L267.458 6.8449L266.182 7.7318L264.157 9.3263L263.854 9.7721L262.77 10.6546L261.978 10.6591L261.378 11.0608L259.689 13.0536L258.633 13.6345L256.372 13.8225L255.508 14.4431L255.019 14.5348L254.155 15.2907L252.912 15.9639L251.559 16.9035L251.021 18.398L250.359 18.3238L250.023 18.7652L249.26 18.6253L248.348 18.0353L247.849 18.6208L246.318 19.3116L246.385 20.072L245.728 22.7295L245.013 23.9709L244.072 24.596L242.411 24.9196L241.322 25.5053L240.473 25.5577L238.975 24.7446L238.107 25.584L236.331 25.4702L235.462 25.61L234.632 26.0605L234.143 26.642L232.842 28.8584L231.316 29.8203L231.086 30.5329L231.172 31.1362L231.911 32.0676L232.137 32.6316L231.378 33.5194L229.881 34.3282L227.995 36.4885L227.765 37.4287L228.59 39.0251L228.801 39.7992L228.508 40.5601L228.662 42.0037L229.008 42.5022V43.3507L229.295 44.3568L228.551 45.0394L228.407 46.0891L227.745 46.6709L226.829 46.7103L226.397 47.7252L225.835 48.5785L224.736 49.847L225.288 50.8141L225.739 52.5818L224.789 53.6712L224.453 54.6864L224.99 56.7825L225.11 57.6621L225.969 58.8089L226.608 59.1634L226.512 60.4543L226.123 61.4828L226.181 62.074L225.912 62.7828L224.947 63.667L223.81 64.0741L223.162 64.6782L222.457 64.7481L221.286 65.4401L220.46 65.615L219.433 65.2911L218.459 66.1141L218.142 67.2873L217.677 67.6112L216.222 69.5374L216.126 70.2511L216.443 72.6374L216.083 74.3581L216.112 75.1332L215.867 76.0615L215.752 77.3842L215.282 77.9359L215.733 78.317L215.839 79.3679L216.587 80.2044Z"  stroke="black" /><path d="M78.198 204.694L79.4554 203.92L80.6504 203.709L81.8598 203.907L85.5407 202.552L86.4573 202.104L87.5179 201.976L88.1035 201.646L88.4538 200.376L87.9595 198.942L88.6122 197.667L88.5929 196.858L87.8251 195.75L87.5467 194.827L87.6476 194.308L88.2234 193.767L90.503 193.007L91.8468 192.053L93.1617 190.721L94.2992 189.898L95.0814 189.868L96.3677 190.567L96.838 190.545L97.9225 189.903L99.3432 190.189L103.341 188.769L104.502 187.881L104.925 186.593L105.654 185.292L106.825 185.147L107.66 184.751L108.697 183.424L109.661 181.57L110.899 181.236L111.61 180.889L113.045 179.887L114.633 179.03L115.54 179.008L117.441 177.452L118.449 175.936L119.044 175.4L122.269 175.202L123.061 174.763L124.529 174.218L124.62 173.616L124.342 171.138L124.443 169.86L124.304 167.361L124.51 165.331L125.052 162.038L126.675 162.419L128.695 162.376L129.664 161.985L130.831 160.263L130.648 159.288L131.215 157.809L132.184 156.979L133.211 156.684L133.782 155.999L134.929 155.2L135.735 154.16L136.153 153.071L136.201 151.82H136.724L137.693 151.148L138.154 150.028L138.293 148.18L139.479 146.973L140.491 145.314L141.533 145.279L142.977 145.546L143.904 146.319L144.595 146.495L145.857 146.144L151.294 148.861L152.561 148.725L153.425 147.921L153.862 147.157L155.186 147.403L156.084 147.171L156.588 146.745L156.957 145.928L157.85 144.967L158.896 144.502L163.58 143.067L165.529 142.838L166.618 143.12L167.477 143.562L168.015 142.926L168.73 142.58L170.51 142.759L171.393 142.492L171.556 141.838L171.465 139.797L171.696 139.13L172.353 138.283L173.419 136.001L173.534 133.698L173.764 132.64L174.244 131.601L174.714 129.262L176.706 127.981L177.949 127.534L178.271 125.696L178.683 124.77L178.419 124.319L177.915 122.604L177.287 121.016L177.584 120.27L178.995 118.104L179.609 116.832L179.034 116.92L176.672 116.389L176.24 115.942L175.204 115.71L173.788 117.1L172.977 117.354L170.501 116.521L168.019 115.854L166.359 115.644L165.245 115.951L164.583 116.574L163.907 116.841L163.398 116.508L162.169 116.67L160.749 117.109L160.134 116.661L159.784 115.723L159.395 115.372L157.864 115.39L156.904 114.749L155.537 114.539L154.534 113.267L153.958 111.588L153.924 110.729L153.324 109.843L151.894 109.177L148.496 106.064L147.076 103.987L146.673 101.931L146.778 99.5907L146.49 97.908L146.226 95.5896L145.818 94.7047L144.484 93.2543L143.563 92.9214L143.38 94.4023L142.872 94.9368L142.238 94.8142L140.813 94.0297L139.493 94.1832L138.989 95.0025L138.927 95.5373L138.082 96.3874L136.983 96.6238L135.798 96.1287L134.478 96.6238L133.062 97.7851L132.357 97.141L131.43 96.8387L129.463 97.908L128.268 97.9649L127.505 97.4346L126.871 97.3907L125.902 98.0481L125.143 99.3147L123.766 102.475L122.845 103.877L121.323 104.798L120.752 105.499L121.055 107.266L121.04 108.467L121.717 110.273L122.307 112.154L122.374 113.109L121.942 114.035L120.824 113.64L118.89 112.456L117.685 111.492L116.481 111.101L114.662 109.076L113.16 108.62L112.224 109.085L111.48 110.409L110.88 111.044L110.18 111.395L106.561 111.926L105.477 111.65L104.56 110.738L102.88 109.593L101.743 109.137L101.239 109.808L101.071 112.294L100.673 112.671L100.063 112.632L97.3274 112.005L96.4781 111.518L95.8589 110.584L95.547 109.471L94.9039 108.997L93.8 108.524L93.4065 108.142L93.1522 107.252L92.6628 106.854L91.362 106.503L89.7592 105.232L89.5719 104.355L89.6152 103.321L89.1545 102.501L87.3643 100.253L86.2078 99.17L84.7249 97.0533L84.3506 96.7467L82.6515 96.7555L80.9623 94.7047L80.396 93.5609L80.1465 91.7646L80.1705 90.2399L79.9928 89.0089L79.3641 86.9587L78.481 85.4472L78.2124 83.5201L77.7517 82.7008L76.7917 82.2453L75.5248 82.1929L75.0065 82.8016L74.3873 84.1727L72.5446 84.7332L71.0952 83.1127L70.6105 81.2205L70.8744 79.1578L70.4088 78.0628L69.4875 76.7579L68.4125 76.6484L68.2012 77.616L67.8509 78.1417L66.5119 79.0482L65.4898 81.4133L65.0481 82.7317L64.1891 83.6339L63.6708 83.8355L61.9191 85.0398L59.3467 87.3879L58.6076 87.9136L57.8734 88.8161L57.7199 89.7756L57.9982 91.2783L57.8925 91.6506L56.2081 92.356L55.6994 93.0658L56.2368 94.3366L56.4671 95.7606L55.4066 99.9239L55.373 101.138L54.4371 102.514L54.2356 103.373L54.7012 104.342L54.8452 105.153L54.8163 106.433L54.4371 107.375L53.6358 108.375L53.2999 109.414L53.1557 111.72L52.8293 112.32L51.7017 112.382L50.977 112.943L50.3339 112.868L49.734 113.833L49.0956 116.139L49.4028 116.657L49.2924 118.196L49.9786 119.634L51.3704 121.174L51.2649 122.165L50.8091 122.976L50.5834 123.84L51.2265 124.954L51.2649 126.2L50.6938 127.034L50.6267 128.477L51.308 129.622L51.2025 130.289L50.3483 131.579L50.1515 132.86L49.3499 133.711L49.0716 134.882L49.1724 135.773L49.5661 136.418L50.6171 137.02L51.1594 139.433L50.5403 140.719L49.6188 142.255L49.0429 144.094L48.3087 145.187L47.4207 145.604L46.6336 145.529L45.3091 146.244L44.9253 146.798L44.4836 148.294L43.2358 149.932L43.4135 151.666L43.2118 152.153L41.8442 152.79L41.4025 153.264L41.4938 153.865L42.2809 155.701L43.1976 156.693L43.7734 157.659L44.4789 158.362L45.3236 158.757L46.3408 158.858L48.2654 158.739L48.8605 159.139L49.2684 159.947L51.4904 159.433L52.1767 159.767L52.431 160.237L52.9638 163.149L53.6453 164.339L54.3795 164.769L55.9393 167.642L57.0719 167.857L58.0558 169.227L58.9675 169.966L60.1914 170.519L61.3337 170.655L62.4327 170.515L63.9636 169.935L64.6354 170.19L65.7201 171.363L66.5168 171.841L67.8748 173.238L69.1562 173.827L69.5641 174.697L69.7561 176.543L69.6745 178.115L69.1611 179.289L67.2797 180.994L66.0607 181.31L65.4993 182.954L64.9282 183.754L64.2466 184.198L63.7476 184.98L63.4548 186.391L62.927 187.063L61.9575 187.652L60.3642 187.604L59.5915 188.29L59.7066 188.808L61.0456 188.668L62.6822 189.257L63.258 189.085L64.1651 189.349L66.0465 191.169L66.9918 192.844L67.8653 195.152L68.4364 196.251L68.6764 197.223L69.2522 197.491L69.9818 197.434L70.6585 197.931L71.5511 199.382L72.6501 198.432L73.2452 198.96L76.7102 199.294L77.4589 200.327L77.5357 203.225L78.198 204.694Z"  stroke="black" /><path d="M348.387 199.76L347.821 200.45L345.791 201.009L346.012 201.383L346.04 202.724L345.532 202.698L344.562 202.047L344.111 202.645L343.78 203.612L343.967 204.303L343.41 204.62L343.588 205.028L342.772 205.741L343.65 207.166L343.41 208.904L341.956 209.51L340.42 210.724L339.998 211.534L338.189 212.225L337.723 213.034L337.234 215.111L336.797 215.643L335.933 216.197L335.564 217.636L334.565 218.688L333.279 219.189L331.974 218.996L331.619 220.857L331.182 221.618L330.073 222.217L329.714 222.736L329.262 224.518L328.365 226.935L329.507 229.84L330.289 230.214L332.891 229.954L334.551 229.928L335.756 230.627L336.154 230.579L337.224 229.901L338.126 229.985L338.674 230.896L338.784 231.495L339.417 232.569L340.032 232.943L340.243 233.444L340.612 235.584L341.212 236.561L342.422 237.196L343.746 238.248L344.917 238.38L345.071 238.772L344.773 240.194L344.999 240.555L344.908 241.423L345.335 241.533L345.959 242.268L347.072 242.598L347.355 243.607L347.686 243.946L347.787 245.729L347.6 246.897L348.022 247.742L349.337 247.773L350.014 247.196L350.859 245.914L351.521 245.487L351.895 245.571L351.79 246.095L351.036 247.65L351.008 248.2L351.531 248.596L352.111 249.566L352.318 250.706L352.289 251.596L352.505 252.547L352.956 252.785L353.402 250.204L354.079 250.129L354.218 251.301L355.279 252.222L354.736 253.054L354.002 253.01L353.748 253.367L353.892 254.032L353.417 254.168L352.644 255.059L350.95 258.627L351.008 259.733L351.545 260.16L351.55 260.861L352.414 260.984L352.529 261.755L353.018 262.518L353.561 262.641L353.455 263.28L352.649 264.501L352.548 266.1L352.879 266.739L353.417 267.118L354.228 267.242L354.602 266.598L355.418 266.978L356.181 268.19L356.503 267.674L356.935 267.797L357.155 268.564L357.698 268.877L358.072 268.366L358.067 267.727L358.499 267.277L359.584 267.207L359.963 267.713L360.073 268.67L360.347 269.119L359.919 270.08L358.628 271.495L356.258 273.174L355.351 274.237L356.239 275.617L356.704 275.44L357.457 274.224L358.034 274.126L358.101 275.118L357.981 276.82L358.245 277.988L359.065 278.853L359.589 279.743L360.606 279.919L361.331 280.863L363.183 281.004L364.733 280.973L365.971 280.726L367.43 282.604L367.747 283.676L368.856 284.13L367.622 285.559L367.733 286.485L368.721 287.116L369.029 288.593L369.619 288.747L370.166 288.223L370.391 287.345L371.591 286.335L371.99 285.078L372.916 283.575L373.693 283.301L374.072 283.817L373.986 285.114L374.14 285.533L374.043 287.107L374.672 288.024L374.658 289.744L375.171 291.522L375.627 291.711L378.133 291.945L379.443 292.152L380.556 291.844L382.389 290.763L383.157 289.405L383.829 289.215L383.757 289.982L382.37 291.901L382.178 292.355L382.269 293.33L383.738 294.248L384.923 294.569L385.187 294.94L385.47 296.197L386.771 296.365L387.189 296.577L387.073 297.075L387.846 297.124L387.856 297.477L388.465 298.152L388.609 298.654L387.98 299.846L385.408 300.719L385.13 299.418L384.371 298.941L384.069 299.109L383.666 300.269L382.221 303.208L379.98 305.043L379.265 306.221L379.078 307.162L379.054 308.997L378.675 310.004L377.609 309.695L376.347 310.065L375.704 310.719L374.576 311.089L373.458 311.195L371.692 312.303L371.337 313.093L370.31 313.283L370.161 313.945L370.151 315.53L369.945 316.863L370.852 318.814L371.654 319.626L372.114 319.723L372.081 321.07L372.872 320.341L372.724 321.202L373.266 321.909L373.722 321.869L373.779 323.578L374.49 323.653L375.104 324.24L374.974 325.211L375.363 326.006L377.053 327.954L377.964 328.479L378.776 328.409L379.779 327.075L380.59 327.543L380.249 328.921L380.211 330.179L381.094 332.798L380.705 333.898L380.182 334.295L378.176 336.615L377.614 337.502L377.053 339.353L376.198 339.959L375.982 341.672L375.176 343.148L374.984 343.829L374.687 346.108L374.965 347.553L374.955 348.3L374.528 349.281L374.25 350.713L374.461 351.606L374.144 352.481L374.159 353.258L373.727 354.757L373.453 358.094L373.592 358.647L374.216 359.146L374.523 359.862L375.402 360.401L375.901 361.126L376.957 361.524L378.512 361.918L378.972 362.448L379.232 363.279L379.299 364.659L379.774 365.291L381.257 368.355L382.029 370.655L382.044 372.353L382.49 374.294L383.09 375.886L383.575 376.523L385.192 377.218L386.272 377.403L387.352 378.036L388.921 378.726L389.449 378.527L390.049 378.978L390.5 379.845L390.385 380.849L390.03 381.783L390.548 382.557L390.774 384.039L391.201 385.357L391.517 387.879L392.281 387.264L393.437 386.901L395.174 385.596L395.779 384.751L396.154 383.68L397.056 383.313L399.906 383.99L402.316 385.034L404.202 386.689L405.877 387.565L406.875 388.357L407.326 388.268L409.015 387.206L409.418 387.29L409.797 387.977L410.225 387.822L410.892 386.202L411.348 386.556L411.352 387.034L411.943 388.645L413.075 389.025L414.352 387.667L414.53 386.065L415.772 383.8L415.744 382.809L416.291 381.3L416.252 379.743L415.662 378.788L415.542 378.023L416.622 376.298L416.939 374.736L417.697 373.427L418.004 372.202L417.99 371.424L418.306 369.894L417.889 368.665L418.662 367.568L419.074 366.56L419.214 364.699L418.882 363.425L418.652 361.684L418.105 360.291L417.923 358.907L417.999 357.692L418.762 355.314L418.921 353.214L419.214 352.379L420.98 352.149L422.381 352.657L423.586 352.463L425.424 350.549L426.311 349.856L426.859 349.127L427.449 347.602L427.972 345.07L428.111 344.862L429.493 344.425L430.832 344.571L431.571 343.762L434.273 342.971L435.56 341.655L436.063 341.31L437.062 341.266L438.943 342.106L439.548 342.07L440.68 340.895L441.251 340.665L443.444 340.78L444.769 340.374L446.698 339.473L448.484 340.325L449.832 339.428L451.541 338.642L453.504 337.321L453.983 336.654L454.343 335.625L454.996 334.454L456.565 332.789L457.847 332.105L459.071 331.972L459.92 331.698L460.055 330.59L460.405 329.804L461.312 328.956L462.464 328.47L462.493 327.437L463.212 326.417L464.547 326.32L464.657 324.704L464.619 323.207L464.763 322.871L465.684 322.62L466.149 322.081L466.044 320.395L466.567 318.218L467.104 317.26L468.429 316.92L469.245 316.408L469.927 315.318L469.912 313.438L470.205 312.506L471.981 310.396L472.859 309.801L473.118 309.183L473.123 307.806L473.334 306.509L473.281 304.853L472.504 302.886L472.806 302.268L473.295 300.066L473.526 299.55L474.231 299.211L475.268 299.753L475.829 299.771L476.449 299.308L477.221 297.587L477.346 296.343L478.469 295.368L478.287 294.945L478.349 293.674L476.871 291.65L477.159 291.191L478.291 291.27L479.155 290.499L479.467 289.665L479.078 287.125L478.579 286.534L478.306 285.771L477.125 285.564L476.612 284.615L476.41 282.869L476.66 281.798L477.596 279.787L477.106 279.439L477.212 278.173L477.447 277.371L478.33 276.846L478.565 276.146L479.726 275.894L479.779 274.871L479.151 274.395L477.96 274.113L477.111 273.395L476.122 273.13L475.052 273.382L474.203 273.977L473.324 273.924L472.585 273.58L471.851 272.95L470.521 272.897L469.149 271.728L468.256 271.266L467.849 270.309L466.548 269.595L466.173 269.992L465.132 269.432L465.055 268.524L464.206 266.995L464.033 265.809L464.407 265.51L465.089 263.769L465.631 263.051L465.909 262.055L465.353 260.742L466.245 258.856L467.618 255.398L468.645 253.592L469.068 251.777L469.115 250.345L470.138 249.469L470.867 247.786L471.87 246.046L472.393 244.184L471.933 242.409L471.405 241.66L469.922 241.158L469.24 240.696L468.683 239.591L468.592 236.46L468.189 235.377L467.498 234.373L465.094 232.895L465.151 232.758L463.366 229.509L462.363 228.669L461.158 228.682L457.17 227.533L455.913 227.832L454.199 229.668L452.246 230.949L451.282 231.164L449.434 231.116L449.165 232.335L447.865 232.155L447.039 231.569L446.607 229.861L444.524 228.677L443.507 228.928L443.238 230.847L442.211 232.388L441.098 233.062L440.565 233.198L439.74 232.991L438.741 232.472L437.844 232.485L437.321 232.234L437.081 231.688L438.185 229.738L438.727 229.734L439.269 228.449L438.828 227.172L438.77 226.217L438.017 226.42L437.522 226.116L436.98 225.253L435.579 224.875L435.075 224.325L434.552 224.241L433.99 224.589L433.174 223.506L433.117 222.485L432.848 222.102L431.49 221.983L431.221 222.177L430.194 224.034L430.813 224.716L430.036 225.632L429.057 225.319L428.678 224.364L428.562 222.767L428.236 221.873L427.641 221.812L427.262 222.327L427.05 223.603L425.524 225.363L423.753 228.788L422.65 230.095L422.146 230.112L421.781 228.189L420.596 225.482L419.348 223.898L418.014 222.798L417.745 221.671L417.731 220.747L418.628 217.614L418.777 216.162L418.714 214.182L418.359 212.735L417.51 210.703L417.016 208.917L417.049 207.69L416.233 204.962L415.47 203.305L414.217 202.073L412.951 200.257L411.597 199.325L410.412 198.16L409.567 197.636L408.315 197.258L406.875 198.019L405.881 198.124L405.416 198.485L405.445 200.09L405.733 202.152L405.593 203.626L403.328 204.809L402.157 206.216L401.951 206.673L400.986 207.716L400.549 208.798L399.796 209.251L399.018 209.194L396.23 207.012L394.829 207.861L393.821 208.706L391.028 211.582L390.125 212.238L389.799 212.119L388.667 209.374L388.316 208.886L387.419 208.697L386.55 207.835L385.451 207.272L384.957 207.909L384.347 208.028L383.229 207.32L382.581 207.223L381.789 208.16L381.271 208.499L380.695 207.883L381.257 207.725L381.305 207.28L380.623 207.03L380.081 205.376L378.584 205.16L378.804 206.317L378.377 207.377L377.547 207.307L377.331 208.512L377.797 210.241L377.686 210.685L378.324 210.368L378.785 208.864L379.486 207.971L380.172 207.861L380.374 208.618L382.145 208.802L382.269 209.198L381.794 209.893L382.552 210.003L382.85 210.909L382.082 212.44L380.902 212.533L380.297 213.509H379.975L379.63 214.415L380.407 215.159L379.419 215.366L378.771 214.868L378.228 215.81L377.581 215.251L377.95 214.534L377.921 213.522L377.691 213.302L376.318 213.346L375.354 213.76L375.344 214.433L374.936 215.383L373.784 216.527L373.209 216.642L372.22 216.228L370.372 215.766L369.321 216.035L368.961 215.441L369.182 215.111L368.347 214.301L367.973 214.345L367.497 213.5L369.273 212.704L369.518 212.018L369.739 210.509L370.041 210.056L371.015 207.681L372.944 205.992L373.424 205.763L373.938 204.998L374.418 203.388L374.168 202.451L373.631 201.831L373.079 200.134L371.975 199.114L371.078 198.872L369.825 199.035L368.601 199.021L367.521 198.652L366.614 197.078L366.403 195.148L366.912 193.996L366.984 193.279L366.677 192.989L365.823 193.007L365.443 193.292L362.511 193.187L362.372 193.561L361.427 194.528L360.692 195.499L360.543 196.506L360.27 196.99L360.635 197.535L360.352 198.335L359.305 198.806L357.851 198.999L356.872 198.775L355.994 198.094L355.595 198.335L355.159 199.452L354.199 201.189L353.719 201.594L352.788 201.721L351.286 200.89L350.23 199.98L349.966 200.415L349.371 200.437L349.03 200.798L348.306 200.151L348.387 199.76Z"  stroke="black" /><path d="M355.351 274.237L354.271 274.784L353.349 274.47L352.644 274.537L351.516 274.929L350.652 274.933L349.789 275.193L348.718 276.22L347.211 277.19L346.184 277.318L344.298 277.781L342.503 278.085L340.219 277.781L337.8 276.917L335.636 277.402L335.53 277.08L336.183 276.388L336.356 275.11L336.312 273.192L335.775 272.804L335.506 272.994L334.685 274.514L334.148 274.634L333.716 274.056L333.788 273.113L332.891 273.527L332.171 274.298L331.907 275.008L331.105 275.193L330.38 276.555L329.872 276.71L330.083 275.374L329.742 274.748L328.97 275.158L328.518 276.741L327.65 276.793L327.05 277.812L325.941 278.085L325.869 276.137L325.015 275.237L325.394 274.598L325.346 273.959L324.588 274.334L324.103 274.206L323.887 273.562L324.276 272.61L324.113 271.971L323.211 269.728L322.51 269.652L321.641 269.966L320.998 268.873L320.672 268.806L319.587 269.309L319.309 270.904L319.899 271.61L319.621 272.377L318.805 272.879L317.668 273.064L316.914 272.676L316.698 272.099L316.813 270.821L316.516 270.107L315.628 270.428L314.946 269.895L314.039 269.917L312.825 268.789L311.563 268.502L310.958 268.798L310.641 269.432L309.586 270.896L309.547 272.434L309.101 273.774L308.127 273.642L307.642 273.192L305.958 273.628L304.263 275.537L303.995 276.044L303.505 275.722L302.416 276.736L301.979 277.631L301.163 277.878L299.963 278.896L299.157 280.008L297.214 282.014L296.681 283.217L296.858 284.399L296.7 285.224L296.11 286.04L294.478 286.807L293.009 287.623L291.613 289.039L290.85 289.413L289.736 289.012L288.92 287.588L288.469 287.314L286.962 287.596L286.343 287.336L285.724 286.463L285.268 284.439L285.177 282.737L284.971 281.714L284.092 280.841L283.857 280.21L283.157 279.853L282.034 280.228L281.544 281.317L281.578 282.728L281.371 283.588L281.443 284.558L282.706 285.352L282.245 286.392L282.014 287.799L280.133 289.881L279.471 289.674L278.602 290.516L277.11 291.601L275.66 292.351L274.724 293.423L274.259 294.477L274.293 296.197L274.705 297.216L274.696 297.786L273.741 299.047L273.414 299.228L272.291 299.021L270.89 297.516L270.165 297.596L268.308 298.443L268.231 299.047L267.598 299.48L266.503 299.824L266.436 300.296L266.974 300.715L267.866 302.039L267.895 302.802L267.545 304.505L267.559 305.78L267.19 307.475L266.772 308.397L265.87 309.28L264.099 310.282L263.307 310.313L262.971 310.613L263.082 312.206L263.595 312.722L263.691 313.402L263.086 313.786L262.573 315.296L263.034 316.086L264.968 318.421L264.891 319.105L263.869 320.147L262.755 320.536L260.279 322.659L259.909 323.145L259.804 323.896L260.418 324.637L260.893 324.474L261.032 325.75L260.821 327.839L261.292 328.947L261.901 329.031L262.467 329.729L262.803 331.226L262.904 332.281L263.686 333.575L263.826 335.192L264.325 336.928L264.123 337.484L264.488 339.075L264.91 339.322L265.625 339.181L266.148 339.481L266.758 340.224L267.506 339.905L268.375 340.4L268.322 340.917L267.857 340.409L267.142 341.001L266.628 340.714L266.129 341.028L266.048 341.562L266.484 343.369L267.458 343.215L267.194 342.6L267.295 341.681L267.814 341.672L268.193 342.079L269.287 341.991L270.583 342.384L271.831 343.215L272.805 344.032L273.328 344.991L273.832 345.247L274.964 344.633L275.42 345.72L275.838 345.883L277.556 344.465L278.362 344.248L279.293 344.69L280.095 345.989L280.522 346.374L281.578 346.771L282.379 346.55L283.483 345.613L283.685 344.964L283.229 343.802L283.296 343.033L283.934 342.269L284.438 342.03L285.494 342.68L286.506 344.438L286.818 345.181L287.639 346.4L288.594 347.076L289.29 346.886L289.847 346.294L290.504 346.02L291.354 346.237L291.565 346.595L291.838 348.061L292.28 348.751L293.22 348.424L295.495 346.405L297.185 345.154L297.794 344.964L299.215 345.008L300.222 346.21L301.677 347.743L302.286 347.96L302.896 347.757L303.731 347.147L304.398 346.267L305.185 346.095L305.833 346.298L306.409 347.372L306.557 348.654L307.417 349.043L308.396 348.671L308.938 348.044L309.758 347.73L311.333 347.977L311.966 348.711L312.552 348.663L313.07 347.461L313.459 347.019L314.414 346.917L315.834 347.823L316.957 347.602L318.004 346.32L318.474 346.148L319.467 346.303L321.473 347.425L322.116 346.656L321.987 345.892L320.984 344.858L319.506 344.796L318.709 344.279L317.466 342.795L316.645 341.509L316.674 340.67L317.639 339.486L319.525 337.931L320.936 337.158L321.56 335.961L321.79 333.346L322.169 332.277L322.102 331.526L321.291 330.647L319.674 330.073L319.007 329.468L318.93 328.938L319.007 326.739L319.861 326.037L321.478 325.304L322.15 324.704L323.206 324.138L323.614 324.205L324.314 325.269L324.689 326.183L325.73 327.269L326.656 327.11L326.647 325.949L325.999 323.975L326.407 322.567L328.701 322.699L328.735 324.086L329.704 324.041L328.955 327.393L328.72 329.464L330.28 330.228L331.048 330.4L330.899 331.328L331.148 331.668L331.038 332.335L331.321 332.82L333.102 333.527L334.397 333.302L335.487 332.22L335.813 331.345L336.192 329.499L335.722 328.651L334.018 327.887L333.783 327.34L334.052 326.496L334.873 326.514L335.751 326.271L335.996 325.278L336.365 324.863L337.834 324.143L338.52 323.419L340.372 324.222L341.755 324.518L342.354 325.061L343.372 325.423L343.91 325.958L344.812 326.081L347.427 325.75L348.339 326.699L349.477 328.241L349.03 329.689L348.282 331.306L347.854 332.524L346.108 333.244L345.181 334.145L344.538 335.21L345.057 336.879L345.033 337.737L343.799 339.57L343.842 340.559L346.741 343.776L348.325 343.948L348.69 344.279L349.529 345.68L350.24 347.147L350.849 347.982L352.558 349.458L353.181 349.63L354.535 350.651L355.691 351.035L356.853 350.934L358.206 350.028L358.432 350.598L358.547 352.092L358.835 352.715L359.867 353.201L360.38 354.089L360.486 354.925L360.956 356.118L362.55 356.967L363.74 357.948L364.906 359.451L365.434 359.897L369.062 361.71L369.71 361.674L370.622 361.131L371.802 361.821L372.469 361.993L373.137 361.555L373.573 360.768L374.523 359.862L374.216 359.146L373.592 358.647L373.453 358.094L373.727 354.757L374.159 353.258L374.144 352.481L374.461 351.606L374.25 350.713L374.528 349.281L374.955 348.3L374.965 347.553L374.687 346.108L374.984 343.829L375.176 343.148L375.982 341.672L376.198 339.959L377.053 339.353L377.614 337.502L378.176 336.615L380.182 334.295L380.705 333.898L381.094 332.798L380.211 330.179L380.249 328.921L380.59 327.543L379.779 327.075L378.776 328.409L377.964 328.479L377.053 327.954L375.363 326.006L374.974 325.211L375.104 324.24L374.49 323.653L373.779 323.578L373.722 321.869L373.266 321.909L372.724 321.202L372.872 320.341L372.081 321.07L372.114 319.723L371.654 319.626L370.852 318.814L369.945 316.863L370.151 315.53L370.161 313.945L370.31 313.283L371.337 313.093L371.692 312.303L373.458 311.195L374.576 311.089L375.704 310.719L376.347 310.065L377.609 309.695L378.675 310.004L379.054 308.997L379.078 307.162L379.265 306.221L379.98 305.043L382.221 303.208L383.666 300.269L384.069 299.109L384.371 298.941L385.13 299.418L385.408 300.719L387.98 299.846L388.609 298.654L388.465 298.152L387.856 297.477L387.846 297.124L387.073 297.075L387.189 296.577L386.771 296.365L385.47 296.197L385.187 294.94L384.923 294.569L383.738 294.248L382.269 293.33L382.178 292.355L382.37 291.901L383.757 289.982L383.829 289.215L383.157 289.405L382.389 290.763L380.556 291.844L379.443 292.152L378.133 291.945L375.627 291.711L375.171 291.522L374.658 289.744L374.672 288.024L374.043 287.107L374.14 285.533L373.986 285.114L374.072 283.817L373.693 283.301L372.916 283.575L371.99 285.078L371.591 286.335L370.391 287.345L370.166 288.223L369.619 288.747L369.029 288.593L368.721 287.116L367.733 286.485L367.622 285.559L368.856 284.13L367.747 283.676L367.43 282.604L365.971 280.726L364.733 280.973L363.183 281.004L361.331 280.863L360.606 279.919L359.589 279.743L359.065 278.853L358.245 277.988L357.981 276.82L358.101 275.118L358.034 274.126L357.457 274.224L356.704 275.44L356.239 275.617L355.351 274.237Z"  stroke="black" /><path d="M240.761 146.223L237.632 147.851L237.689 148.887L237.444 150.059L238.697 152.074L239.638 151.789L240.386 152.201L241.14 153.299L241.125 153.98L240.439 154.893L240.348 155.74L241.413 156.798L241.341 158.665L241.759 159.57L241.807 161.128L240.982 162.283L240.837 163.698L241.183 164.277L243.635 164.611L244.845 164.536L245.099 165.507L247.408 165.731L247.849 165.582L248.641 166.566L249.231 166.706L250.033 166.504L250.872 166.921L252.312 168.582L252.84 168.674L253.45 169.241L253.728 170.001L255.302 170.739L255.95 171.336L257.697 171.31L257.985 171.051L259.406 171.301L260.658 171.213L261.003 171.828L260.84 172.852L261.263 175.299L261.32 176.354L261.709 176.674L262.069 177.826L263.312 178.08L263.686 179.183L263.451 179.684L263.744 180.721L264.296 180.932L264.123 182.053L263.768 182.866L263.178 183.205L263.139 183.758L263.859 184.681L264.123 186.285L263.494 186.773L262.352 186.663L260.802 186.896L258.311 187.099L256.828 188.633L255.883 188.896L255.24 190.101L254.525 191.125L254.419 192.255L253.128 195.706L253.061 196.471L253.238 199.048L253.118 200.024L252.471 200.723L253.013 202.425L253.522 205.178L253.555 206.651L254.031 208.723L253.69 209.181L253.555 210.333L253.229 210.724L252.192 213.21L252.927 215.15L252.557 215.999L252.73 216.611L253.445 217.016L253.738 217.821L254.285 218.124L257.054 218.908L258.134 220.782L259.06 221.9L261.167 223.348L262.333 223.898L262.818 224.43L263.389 226.226L263.504 228.074L264.809 229.091L265.841 229.624L266.787 229.056L267.799 228.858L268.27 229.069L268.86 229.861L270.885 230.495L271.034 231.023L270.703 232.841L270.746 234.281L270.578 236.615L269.786 237.807L266.374 239.468L265.021 239.005L264.181 237.852L263.418 237.636L261.656 239.133L260.672 239.406L258.887 237.812L257.99 238.072L257.088 238.635L254.098 240.225L252.879 240.168L252 240.308L251.444 241.401L251.319 243.409L252.836 244.373L252.975 245.082L252.715 246.042L252.956 247.077L254.045 248.24L256.233 248.548L256.564 248.936L256.867 249.988L256.915 251.253L256.44 252.486L255.249 253.891L255.283 255.671L252.144 257.31L251.775 257.979L252.072 259.839L251.952 260.411L251.093 262.522L251.108 263.448L251.357 264.06L251.904 266.246L251.688 267.498L250.239 269.406L249.202 271.275L250.335 272.742L249.966 273.783L248.617 273.404L247.571 273.54L247.436 274.043L247.638 275.974L247.417 276.622L246.169 276.406L244.96 276.608L245.032 277.812L244.087 278.482L243.842 279.651L242.882 280.581L242.872 281.33L243.525 282.327L243.17 282.816L243.107 284.633L243.276 285.784L243.693 286.397L244.984 285.85L245.517 285.974L246.611 287.217L246.39 288.457L247.494 291.014L247.552 291.989L248.502 292.483L249.596 291.31L251.679 289.947L253.133 289.665L254.405 289.039L254.774 288.033L255.83 288.077L256.435 288.351L257.462 287.958L258.743 288.84L259.564 288.562L259.857 289.599L261.109 288.152L262.275 288.112L263.125 288.32L264.416 288.937L266.374 289.334L267.718 290.079L268.884 291.323L269.148 292.201L268.62 293.498L268.255 295.522L268.831 295.637L269.887 296.347L270.89 297.516L272.291 299.021L273.414 299.228L273.741 299.047L274.696 297.786L274.705 297.216L274.293 296.197L274.259 294.477L274.724 293.423L275.66 292.351L277.11 291.601L278.602 290.516L279.471 289.674L280.133 289.881L282.014 287.799L282.245 286.392L282.706 285.352L281.443 284.558L281.371 283.588L281.578 282.728L281.544 281.317L282.034 280.228L283.157 279.853L283.857 280.21L284.092 280.841L284.971 281.714L285.177 282.737L285.268 284.439L285.724 286.463L286.343 287.336L286.962 287.596L288.469 287.314L288.92 287.588L289.736 289.012L290.85 289.413L291.613 289.039L293.009 287.623L294.478 286.807L296.11 286.04L296.7 285.224L296.858 284.399L296.681 283.217L297.214 282.014L299.157 280.008L299.963 278.896L301.163 277.878L301.979 277.631L302.416 276.736L303.505 275.722L303.995 276.044L304.263 275.537L305.958 273.628L307.642 273.192L308.127 273.642L309.101 273.774L309.547 272.434L309.586 270.896L310.641 269.432L310.958 268.798L311.563 268.502L312.825 268.789L314.039 269.917L314.946 269.895L315.628 270.428L316.516 270.107L316.813 270.821L316.698 272.099L316.914 272.676L317.668 273.064L318.805 272.879L319.621 272.377L319.899 271.61L319.309 270.904L319.587 269.309L320.672 268.806L320.998 268.873L321.641 269.966L322.51 269.652L323.211 269.728L324.113 271.971L324.276 272.61L323.887 273.562L324.103 274.206L324.588 274.334L325.346 273.959L325.394 274.598L325.015 275.237L325.869 276.137L325.941 278.085L327.05 277.812L327.65 276.793L328.518 276.741L328.97 275.158L329.742 274.748L330.083 275.374L329.872 276.71L330.38 276.555L331.105 275.193L331.907 275.008L332.171 274.298L332.891 273.527L333.788 273.113L333.716 274.056L334.148 274.634L334.685 274.514L335.506 272.994L335.775 272.804L336.312 273.192L336.356 275.11L336.183 276.388L335.53 277.08L335.636 277.402L337.8 276.917L340.219 277.781L342.503 278.085L344.298 277.781L346.184 277.318L347.211 277.19L348.718 276.22L349.789 275.193L350.652 274.933L351.516 274.929L352.644 274.537L353.349 274.47L354.271 274.784L355.351 274.237L356.258 273.174L358.628 271.495L359.919 270.08L360.347 269.119L360.073 268.67L359.963 267.713L359.584 267.207L358.499 267.277L358.067 267.727L358.072 268.366L357.698 268.877L357.155 268.564L356.935 267.797L356.503 267.674L356.181 268.19L355.418 266.978L354.602 266.598L354.228 267.242L353.417 267.118L352.879 266.739L352.548 266.1L352.649 264.501L353.455 263.28L353.561 262.641L353.018 262.518L352.529 261.755L352.414 260.984L351.55 260.861L351.545 260.16L351.008 259.733L350.95 258.627L352.644 255.059L353.417 254.168L353.892 254.032L353.748 253.367L354.002 253.01L354.736 253.054L355.279 252.222L354.218 251.301L354.079 250.129L353.402 250.204L352.956 252.785L352.505 252.547L352.289 251.596L352.318 250.706L352.111 249.566L351.531 248.596L351.008 248.2L351.036 247.65L351.79 246.095L351.895 245.571L351.521 245.487L350.859 245.914L350.014 247.196L349.337 247.773L348.022 247.742L347.6 246.897L347.787 245.729L347.686 243.946L347.355 243.607L347.072 242.598L345.959 242.268L345.335 241.533L344.908 241.423L344.999 240.555L344.773 240.194L345.071 238.772L344.917 238.38L343.746 238.248L342.422 237.196L341.212 236.561L340.612 235.584L340.243 233.444L340.032 232.943L339.417 232.569L338.784 231.495L338.674 230.896L338.126 229.985L337.224 229.901L336.154 230.579L335.756 230.627L334.551 229.928L332.891 229.954L330.289 230.214L329.507 229.84L328.365 226.935L329.262 224.518L329.714 222.736L330.073 222.217L331.182 221.618L331.619 220.857L331.974 218.996L333.279 219.189L334.565 218.688L335.564 217.636L335.933 216.197L336.797 215.643L337.234 215.111L337.723 213.034L338.189 212.225L339.998 211.534L340.42 210.724L341.956 209.51L343.41 208.904L343.65 207.166L342.772 205.741L343.588 205.028L343.41 204.62L343.967 204.303L343.78 203.612L344.111 202.645L344.562 202.047L345.532 202.698L346.04 202.724L346.012 201.383L345.791 201.009L347.821 200.45L348.387 199.76L348.579 198.379L349.227 196.704L349.822 195.965L350.998 195.79L351.785 195.847L352.428 195.332L353.033 193.385L353.124 191.459L352.937 189.455L352.025 187.261L350.48 185.978L350.71 185.441L351.953 184.048L352.457 182.848L352.03 181.82L352.188 180.77L352.082 179.548L351.569 177.338L351.315 176.837L351.31 175.066L352.298 174.275L352.918 173.484L353.023 172.949L355.586 171.398L356.037 170.928L355.994 170.374L354.367 168.907L354.108 167.585L354.141 166.706L354.837 165.608L355.965 165.99L356.608 165.494L356.973 165.661L357.112 164.76L356.718 163.021L356.172 161.208L356.09 160.426L356.363 158.748L356.334 157.791L355.773 154.924L354.977 153.066L355.005 151.719L355.682 151.192L359.032 150.445L359.708 149.936L360.136 148.957L360.054 148.523L359.363 148.079L359.08 147.294L359.176 146.266L358.768 145.419L357.117 144.247L356.752 144.471L356.296 145.318L355.634 145.801L354.89 145.942L354.669 145.292L353.609 146.117L353.628 146.556L352.951 147.07L347.446 146.42L347.734 145.459L347.47 144.019L346.141 142.307L345.061 142.382L344.889 141.592L344.303 140.512L343.535 140.122L343.66 138.586L343.257 138.292L342.158 138.336L341.294 139.016L340.459 140.521L339.192 140.96L337.843 140.306L337.45 140.469L336.831 142.492L336.505 143.124L334.954 144.581L334.335 146.218L334.431 146.74L334.134 147.241L333.308 147.307L332.262 146.447L332.137 147.368L331.024 146.995L329.882 147.122L329.349 148.176L328.634 150.169L328.072 150.121L327.304 151.504L326.892 151.89L325.845 151.565L324.703 151.521L324.276 150.125L323.902 149.769L323.897 148.373L324.626 145.779L324.622 143.343L324.247 143.216L323.81 144.107L323.244 143.835L323.019 142.391L321.78 141.338L321.392 140.512L320.139 140.464L319.64 141.004L318.344 140.372L317.365 140.785L317.01 141.188L315.412 141.667L315.383 142.395L316.117 144.357L316.809 145.033L316.962 145.472L316.549 146.073L314.495 147.605L312.619 148.312L311.078 149.146L310.291 149.282L308.002 151.754L306.841 151.534L306.884 150.805L305.775 150.068L305.535 148.395L304.676 146.775L304.038 144.787L303.472 144.107L303.011 142.909L302.747 141.487L302.022 140.596L301.345 139.108L300.698 138.524L300.184 138.661L299.579 139.292L299.248 138.792L298.572 139.135L298.313 140.403L298.423 141.654L297.861 142.597L297.333 142.452L296.921 141.531L296.033 141.258L294.204 142.356L292.851 141.728L292.049 142.136L290.024 141.219L289.276 140.183L289.05 139.257L289.492 138.204L288.729 136.91L288.546 134.589L288.181 133.794L286.9 133.149L286.017 132.956L284.899 132.131L283.589 132.364L282.624 131.96L281.88 131.263L279.581 131.32L278.621 131.614L277.666 131.079L276.059 130.613L274.657 131.149L273.309 131.219L271.643 131.688L270.079 132.539L267.987 132.719L266.695 133.549L265.462 133.799L263.725 133.592L263.091 133.364L262.314 132.267L260.48 131.412L260.509 131.965L259.453 133.154L259.569 134.158L258.417 135.8L257.352 135.255L256.444 135.861L255.888 137.857L255.134 139.13L254.477 139.635L253.426 139.674L252.389 139.161L251.674 140.008L250.805 140.078L249.898 140.736L249.346 141.373L249.999 141.969L249.591 143.69L248.67 144.006L247.225 146.025L246.5 147.201L245.046 147.052L244.35 146.003L242.776 146.359L241.409 146.095L240.761 146.223Z"  stroke="black" /><text fill="#000000" transform="translate(76.48699951171864 359.92950439453125)"></text><text fill="#000000" transform="translate(267.4848632812499 104.51840209960938)"></text><text fill="#000000" transform="translate(86.97076416015614 242.51971435546875)"></text><text fill="#000000" transform="translate(197.8511962890624 242.46209716796875)"></text><text fill="#000000" transform="translate(187.59771728515614 178.59170532226562)"></text><text fill="#000000" transform="translate(281.6665039062499 42.21430206298828)"></text><text fill="#000000" transform="translate(110.50598144531239 135.67140197753906)"></text><text fill="#000000" transform="translate(404.07196044921864 286.0069885253906)"></text><text fill="#000000" transform="translate(324.20648193359364 310.2477111816406)"></text><text fill="#000000" transform="translate(298.8955078124999 209.92068481445312)"></text></svg>